<svg xmlns="http://www.w3.org/2000/svg" xmlns:xlink="http://www.w3.org/1999/xlink" width="500" zoomAndPan="magnify" viewBox="0 0 375 374.999991" height="500" preserveAspectRatio="xMidYMid meet" version="1.0"><defs><clipPath id="10d3776146"><path d="M 67 245 L 73 245 L 73 251.503906 L 67 251.503906 Z M 67 245 " clip-rule="nonzero"/></clipPath><clipPath id="959f2cacd8"><path d="M 199 224 L 205.183594 224 L 205.183594 230 L 199 230 Z M 199 224 " clip-rule="nonzero"/></clipPath><clipPath id="77c89c4df6"><path d="M 7.183594 175 L 13 175 L 13 181 L 7.183594 181 Z M 7.183594 175 " clip-rule="nonzero"/></clipPath><clipPath id="777481f22a"><path d="M 22 133.753906 L 27 133.753906 L 27 139 L 22 139 Z M 22 133.753906 " clip-rule="nonzero"/></clipPath><clipPath id="02d15a3d06"><path d="M 293 104.023438 L 299 104.023438 L 299 110 L 293 110 Z M 293 104.023438 " clip-rule="nonzero"/></clipPath><clipPath id="7404f249f4"><path d="M 163.144531 125 L 169 125 L 169 131 L 163.144531 131 Z M 163.144531 125 " clip-rule="nonzero"/></clipPath><clipPath id="f34d8a0ff4"><path d="M 352 173 L 357.792969 173 L 357.792969 180 L 352 180 Z M 352 173 " clip-rule="nonzero"/></clipPath><clipPath id="99641b7a61"><path d="M 338 215 L 344 215 L 344 220.097656 L 338 220.097656 Z M 338 215 " clip-rule="nonzero"/></clipPath><clipPath id="1fb6f29b99"><path d="M 223 104.023438 L 229 104.023438 L 229 110 L 223 110 Z M 223 104.023438 " clip-rule="nonzero"/></clipPath></defs><path fill="#f9c80e" d="M 34.765625 226.132812 C 33.207031 226.132812 31.90625 224.859375 31.90625 223.269531 C 31.90625 221.679688 33.175781 220.40625 34.765625 220.40625 C 36.359375 220.40625 37.628906 221.679688 37.628906 223.269531 C 37.628906 224.859375 36.359375 226.132812 34.765625 226.132812 Z M 34.765625 221.359375 C 33.71875 221.359375 32.859375 222.21875 32.859375 223.269531 C 32.859375 224.316406 33.71875 225.175781 34.765625 225.175781 C 35.816406 225.175781 36.675781 224.316406 36.675781 223.269531 C 36.675781 222.21875 35.816406 221.359375 34.765625 221.359375 Z M 34.765625 221.359375 " fill-opacity="1" fill-rule="nonzero"/><path fill="#f9c80e" d="M 69.503906 224.476562 C 67.945312 224.476562 66.640625 223.203125 66.640625 221.613281 C 66.640625 220.023438 67.914062 218.75 69.503906 218.75 C 71.0625 218.75 72.367188 220.023438 72.367188 221.613281 C 72.367188 223.203125 71.0625 224.476562 69.503906 224.476562 Z M 69.503906 219.707031 C 68.453125 219.707031 67.59375 220.5625 67.59375 221.613281 C 67.59375 222.664062 68.453125 223.523438 69.503906 223.523438 C 70.554688 223.523438 71.414062 222.664062 71.414062 221.613281 C 71.414062 220.5625 70.523438 219.707031 69.503906 219.707031 Z M 69.503906 219.707031 " fill-opacity="1" fill-rule="nonzero"/><path fill="#f9c80e" d="M 112.128906 247.347656 C 110.570312 247.347656 109.265625 246.078125 109.265625 244.484375 C 109.265625 242.894531 110.539062 241.621094 112.128906 241.621094 C 113.71875 241.621094 114.992188 242.894531 114.992188 244.484375 C 114.992188 246.078125 113.6875 247.347656 112.128906 247.347656 Z M 112.128906 242.578125 C 111.082031 242.578125 110.222656 243.4375 110.222656 244.484375 C 110.222656 245.535156 111.082031 246.394531 112.128906 246.394531 C 113.179688 246.394531 114.039062 245.535156 114.039062 244.484375 C 114.039062 243.4375 113.179688 242.578125 112.128906 242.578125 Z M 112.128906 242.578125 " fill-opacity="1" fill-rule="nonzero"/><g clip-path="url(#10d3776146)"><path fill="#f9c80e" d="M 70.042969 251.292969 C 68.484375 251.292969 67.183594 250.019531 67.183594 248.429688 C 67.183594 246.839844 68.453125 245.566406 70.042969 245.566406 C 71.605469 245.566406 72.90625 246.839844 72.90625 248.429688 C 72.90625 250.019531 71.605469 251.292969 70.042969 251.292969 Z M 70.042969 246.554688 C 68.996094 246.554688 68.136719 247.414062 68.136719 248.460938 C 68.136719 249.511719 68.996094 250.371094 70.042969 250.371094 C 71.09375 250.371094 71.953125 249.511719 71.953125 248.460938 C 71.953125 247.414062 71.0625 246.554688 70.042969 246.554688 Z M 70.042969 246.554688 " fill-opacity="1" fill-rule="nonzero"/></g><g clip-path="url(#959f2cacd8)"><path fill="#f9c80e" d="M 202.152344 229.757812 C 200.59375 229.757812 199.289062 228.484375 199.289062 226.894531 C 199.289062 225.304688 200.5625 224.03125 202.152344 224.03125 C 203.710938 224.03125 205.015625 225.304688 205.015625 226.894531 C 205.015625 228.484375 203.710938 229.757812 202.152344 229.757812 Z M 202.152344 225.019531 C 201.101562 225.019531 200.246094 225.875 200.246094 226.925781 C 200.246094 227.976562 201.101562 228.835938 202.152344 228.835938 C 203.203125 228.835938 204.0625 227.976562 204.0625 226.925781 C 204.0625 225.875 203.171875 225.019531 202.152344 225.019531 Z M 202.152344 225.019531 " fill-opacity="1" fill-rule="nonzero"/></g><path fill="#f9c80e" d="M 180.777344 247.476562 C 179.21875 247.476562 177.914062 246.203125 177.914062 244.613281 C 177.914062 243.023438 179.1875 241.75 180.777344 241.75 C 182.335938 241.75 183.640625 243.023438 183.640625 244.613281 C 183.640625 246.203125 182.335938 247.476562 180.777344 247.476562 Z M 180.777344 242.734375 C 179.726562 242.734375 178.867188 243.59375 178.867188 244.644531 C 178.867188 245.695312 179.726562 246.554688 180.777344 246.554688 C 181.828125 246.554688 182.683594 245.695312 182.683594 244.644531 C 182.683594 243.59375 181.828125 242.734375 180.777344 242.734375 Z M 180.777344 242.734375 " fill-opacity="1" fill-rule="nonzero"/><path fill="#f9c80e" d="M 20.835938 169.796875 C 19.277344 169.796875 17.972656 168.523438 17.972656 166.933594 C 17.972656 165.375 19.242188 164.070312 20.835938 164.070312 C 22.394531 164.070312 23.699219 165.339844 23.699219 166.933594 C 23.664062 168.523438 22.394531 169.796875 20.835938 169.796875 Z M 20.835938 165.023438 C 19.785156 165.023438 18.925781 165.882812 18.925781 166.933594 C 18.925781 167.980469 19.785156 168.839844 20.835938 168.839844 C 21.882812 168.839844 22.742188 167.980469 22.742188 166.933594 C 22.710938 165.882812 21.882812 165.023438 20.835938 165.023438 Z M 20.835938 165.023438 " fill-opacity="1" fill-rule="nonzero"/><path fill="#f9c80e" d="M 34.894531 215.953125 C 33.335938 215.953125 32.03125 214.679688 32.03125 213.089844 C 32.03125 211.5 33.304688 210.226562 34.894531 210.226562 C 36.453125 210.226562 37.757812 211.5 37.757812 213.089844 C 37.757812 214.679688 36.453125 215.953125 34.894531 215.953125 Z M 34.894531 211.210938 C 33.84375 211.210938 32.984375 212.070312 32.984375 213.121094 C 32.984375 214.171875 33.84375 215.03125 34.894531 215.03125 C 35.945312 215.03125 36.804688 214.171875 36.804688 213.121094 C 36.804688 212.070312 35.945312 211.210938 34.894531 211.210938 Z M 34.894531 211.210938 " fill-opacity="1" fill-rule="nonzero"/><g clip-path="url(#77c89c4df6)"><path fill="#f9c80e" d="M 10.050781 180.738281 C 8.492188 180.738281 7.1875 179.464844 7.1875 177.875 C 7.1875 176.285156 8.460938 175.011719 10.050781 175.011719 C 11.640625 175.011719 12.914062 176.285156 12.914062 177.875 C 12.914062 179.464844 11.609375 180.738281 10.050781 180.738281 Z M 10.050781 176 C 9 176 8.140625 176.855469 8.140625 177.90625 C 8.140625 178.957031 9 179.816406 10.050781 179.816406 C 11.101562 179.816406 11.960938 178.957031 11.960938 177.90625 C 11.960938 176.855469 11.101562 176 10.050781 176 Z M 10.050781 176 " fill-opacity="1" fill-rule="nonzero"/></g><path fill="#f9c80e" d="M 30.886719 248.558594 C 29.328125 248.558594 28.023438 247.285156 28.023438 245.695312 C 28.023438 244.136719 29.296875 242.832031 30.886719 242.832031 C 32.445312 242.832031 33.75 244.105469 33.75 245.695312 C 33.75 247.285156 32.445312 248.558594 30.886719 248.558594 Z M 30.886719 243.816406 C 29.835938 243.816406 28.976562 244.675781 28.976562 245.726562 C 28.976562 246.777344 29.835938 247.636719 30.886719 247.636719 C 31.9375 247.636719 32.796875 246.777344 32.796875 245.726562 C 32.796875 244.644531 31.9375 243.816406 30.886719 243.816406 Z M 30.886719 243.816406 " fill-opacity="1" fill-rule="nonzero"/><path fill="#f9c80e" d="M 20.835938 187.769531 C 20.835938 188.085938 20.773438 188.390625 20.652344 188.679688 C 20.53125 188.972656 20.359375 189.230469 20.136719 189.453125 C 19.910156 189.679688 19.652344 189.851562 19.363281 189.972656 C 19.070312 190.09375 18.765625 190.152344 18.449219 190.152344 C 18.132812 190.152344 17.828125 190.09375 17.535156 189.972656 C 17.242188 189.851562 16.984375 189.679688 16.761719 189.453125 C 16.539062 189.230469 16.367188 188.972656 16.246094 188.679688 C 16.125 188.390625 16.0625 188.085938 16.0625 187.769531 C 16.0625 187.453125 16.125 187.148438 16.246094 186.855469 C 16.367188 186.5625 16.539062 186.304688 16.761719 186.082031 C 16.984375 185.855469 17.242188 185.683594 17.535156 185.5625 C 17.828125 185.441406 18.132812 185.382812 18.449219 185.382812 C 18.765625 185.382812 19.070312 185.441406 19.363281 185.5625 C 19.652344 185.683594 19.910156 185.855469 20.136719 186.082031 C 20.359375 186.304688 20.53125 186.5625 20.652344 186.855469 C 20.773438 187.148438 20.835938 187.453125 20.835938 187.769531 Z M 20.835938 187.769531 " fill-opacity="1" fill-rule="nonzero"/><g clip-path="url(#777481f22a)"><path fill="#f9c80e" d="M 26.910156 136.140625 C 26.910156 136.457031 26.847656 136.761719 26.730469 137.054688 C 26.609375 137.34375 26.433594 137.601562 26.210938 137.828125 C 25.988281 138.050781 25.730469 138.222656 25.4375 138.34375 C 25.144531 138.464844 24.839844 138.527344 24.523438 138.527344 C 24.207031 138.527344 23.902344 138.464844 23.613281 138.34375 C 23.320312 138.222656 23.0625 138.050781 22.835938 137.828125 C 22.613281 137.601562 22.441406 137.34375 22.320312 137.054688 C 22.199219 136.761719 22.136719 136.457031 22.136719 136.140625 C 22.136719 135.824219 22.199219 135.519531 22.320312 135.226562 C 22.441406 134.933594 22.613281 134.675781 22.835938 134.453125 C 23.0625 134.230469 23.320312 134.058594 23.613281 133.9375 C 23.902344 133.816406 24.207031 133.753906 24.523438 133.753906 C 24.839844 133.753906 25.144531 133.816406 25.4375 133.9375 C 25.730469 134.058594 25.988281 134.230469 26.210938 134.453125 C 26.433594 134.675781 26.609375 134.933594 26.730469 135.226562 C 26.847656 135.519531 26.910156 135.824219 26.910156 136.140625 Z M 26.910156 136.140625 " fill-opacity="1" fill-rule="nonzero"/></g><path fill="#f9c80e" d="M 128.796875 237.613281 C 128.796875 237.929688 128.738281 238.234375 128.617188 238.527344 C 128.496094 238.820312 128.324219 239.078125 128.101562 239.300781 C 127.875 239.527344 127.617188 239.699219 127.324219 239.820312 C 127.035156 239.941406 126.730469 240 126.414062 240 C 126.097656 240 125.792969 239.941406 125.5 239.820312 C 125.207031 239.699219 124.949219 239.527344 124.726562 239.300781 C 124.503906 239.078125 124.328125 238.820312 124.207031 238.527344 C 124.085938 238.234375 124.027344 237.929688 124.027344 237.613281 C 124.027344 237.296875 124.085938 236.992188 124.207031 236.703125 C 124.328125 236.410156 124.503906 236.152344 124.726562 235.929688 C 124.949219 235.703125 125.207031 235.53125 125.5 235.410156 C 125.792969 235.289062 126.097656 235.230469 126.414062 235.230469 C 126.730469 235.230469 127.035156 235.289062 127.324219 235.410156 C 127.617188 235.53125 127.875 235.703125 128.101562 235.929688 C 128.324219 236.152344 128.496094 236.410156 128.617188 236.703125 C 128.738281 236.992188 128.796875 237.296875 128.796875 237.613281 Z M 128.796875 237.613281 " fill-opacity="1" fill-rule="nonzero"/><path fill="#f9c80e" d="M 94.921875 228.769531 C 94.921875 229.085938 94.859375 229.390625 94.738281 229.683594 C 94.617188 229.976562 94.445312 230.234375 94.222656 230.457031 C 94 230.683594 93.738281 230.855469 93.449219 230.976562 C 93.15625 231.097656 92.851562 231.15625 92.535156 231.15625 C 92.21875 231.15625 91.914062 231.097656 91.621094 230.976562 C 91.328125 230.855469 91.070312 230.683594 90.847656 230.457031 C 90.625 230.234375 90.453125 229.976562 90.332031 229.683594 C 90.210938 229.390625 90.148438 229.085938 90.148438 228.769531 C 90.148438 228.457031 90.210938 228.152344 90.332031 227.859375 C 90.453125 227.566406 90.625 227.308594 90.847656 227.085938 C 91.070312 226.859375 91.328125 226.6875 91.621094 226.566406 C 91.914062 226.445312 92.21875 226.386719 92.535156 226.386719 C 92.851562 226.386719 93.15625 226.445312 93.449219 226.566406 C 93.738281 226.6875 94 226.859375 94.222656 227.085938 C 94.445312 227.308594 94.617188 227.566406 94.738281 227.859375 C 94.859375 228.152344 94.921875 228.457031 94.921875 228.769531 Z M 94.921875 228.769531 " fill-opacity="1" fill-rule="nonzero"/><path fill="#f9c80e" d="M 107.804688 242.289062 C 107.804688 242.605469 107.742188 242.910156 107.621094 243.203125 C 107.5 243.496094 107.328125 243.753906 107.105469 243.976562 C 106.882812 244.203125 106.625 244.375 106.332031 244.496094 C 106.039062 244.617188 105.734375 244.675781 105.417969 244.675781 C 105.101562 244.675781 104.796875 244.617188 104.503906 244.496094 C 104.210938 244.375 103.953125 244.203125 103.730469 243.976562 C 103.507812 243.753906 103.335938 243.496094 103.214844 243.203125 C 103.09375 242.910156 103.03125 242.605469 103.03125 242.289062 C 103.03125 241.972656 103.09375 241.671875 103.214844 241.378906 C 103.335938 241.085938 103.507812 240.828125 103.730469 240.605469 C 103.953125 240.378906 104.210938 240.207031 104.503906 240.085938 C 104.796875 239.964844 105.101562 239.90625 105.417969 239.90625 C 105.734375 239.90625 106.039062 239.964844 106.332031 240.085938 C 106.625 240.207031 106.882812 240.378906 107.105469 240.605469 C 107.328125 240.828125 107.5 241.085938 107.621094 241.378906 C 107.742188 241.671875 107.804688 241.972656 107.804688 242.289062 Z M 107.804688 242.289062 " fill-opacity="1" fill-rule="nonzero"/><path fill="#f9c80e" d="M 21.789062 213.152344 C 21.789062 213.46875 21.726562 213.773438 21.605469 214.066406 C 21.484375 214.359375 21.3125 214.617188 21.089844 214.839844 C 20.867188 215.0625 20.609375 215.234375 20.316406 215.355469 C 20.023438 215.476562 19.71875 215.539062 19.402344 215.539062 C 19.085938 215.539062 18.78125 215.476562 18.488281 215.355469 C 18.199219 215.234375 17.941406 215.0625 17.714844 214.839844 C 17.492188 214.617188 17.320312 214.359375 17.199219 214.066406 C 17.078125 213.773438 17.015625 213.46875 17.015625 213.152344 C 17.015625 212.835938 17.078125 212.53125 17.199219 212.238281 C 17.320312 211.949219 17.492188 211.6875 17.714844 211.464844 C 17.941406 211.242188 18.199219 211.070312 18.488281 210.949219 C 18.78125 210.828125 19.085938 210.765625 19.402344 210.765625 C 19.71875 210.765625 20.023438 210.828125 20.316406 210.949219 C 20.609375 211.070312 20.867188 211.242188 21.089844 211.464844 C 21.3125 211.6875 21.484375 211.949219 21.605469 212.238281 C 21.726562 212.53125 21.789062 212.835938 21.789062 213.152344 Z M 21.789062 213.152344 " fill-opacity="1" fill-rule="nonzero"/><path fill="#f9c80e" d="M 143.273438 248.492188 C 143.273438 248.808594 143.210938 249.113281 143.089844 249.40625 C 142.96875 249.699219 142.796875 249.957031 142.574219 250.179688 C 142.351562 250.40625 142.089844 250.578125 141.800781 250.699219 C 141.507812 250.820312 141.203125 250.878906 140.886719 250.878906 C 140.570312 250.878906 140.265625 250.820312 139.972656 250.699219 C 139.679688 250.578125 139.421875 250.40625 139.199219 250.179688 C 138.976562 249.957031 138.804688 249.699219 138.683594 249.40625 C 138.5625 249.113281 138.5 248.808594 138.5 248.492188 C 138.5 248.175781 138.5625 247.875 138.683594 247.582031 C 138.804688 247.289062 138.976562 247.03125 139.199219 246.808594 C 139.421875 246.582031 139.679688 246.410156 139.972656 246.289062 C 140.265625 246.167969 140.570312 246.109375 140.886719 246.109375 C 141.203125 246.109375 141.507812 246.167969 141.800781 246.289062 C 142.089844 246.410156 142.351562 246.582031 142.574219 246.808594 C 142.796875 247.03125 142.96875 247.289062 143.089844 247.582031 C 143.210938 247.875 143.273438 248.175781 143.273438 248.492188 Z M 143.273438 248.492188 " fill-opacity="1" fill-rule="nonzero"/><path fill="#f9c80e" d="M 18.796875 154.941406 C 18.796875 155.257812 18.738281 155.558594 18.617188 155.851562 C 18.496094 156.144531 18.324219 156.402344 18.101562 156.625 C 17.875 156.851562 17.617188 157.023438 17.324219 157.144531 C 17.035156 157.265625 16.730469 157.324219 16.414062 157.324219 C 16.097656 157.324219 15.792969 157.265625 15.5 157.144531 C 15.207031 157.023438 14.949219 156.851562 14.726562 156.625 C 14.503906 156.402344 14.328125 156.144531 14.207031 155.851562 C 14.085938 155.558594 14.027344 155.257812 14.027344 154.941406 C 14.027344 154.625 14.085938 154.320312 14.207031 154.027344 C 14.328125 153.734375 14.503906 153.476562 14.726562 153.253906 C 14.949219 153.027344 15.207031 152.855469 15.5 152.734375 C 15.792969 152.613281 16.097656 152.554688 16.414062 152.554688 C 16.730469 152.554688 17.035156 152.613281 17.324219 152.734375 C 17.617188 152.855469 17.875 153.027344 18.101562 153.253906 C 18.324219 153.476562 18.496094 153.734375 18.617188 154.027344 C 18.738281 154.320312 18.796875 154.625 18.796875 154.941406 Z M 18.796875 154.941406 " fill-opacity="1" fill-rule="nonzero"/><path fill="#e40f37" d="M 17.527344 154.941406 C 17.527344 155.085938 17.496094 155.230469 17.441406 155.367188 C 17.386719 155.503906 17.304688 155.621094 17.199219 155.726562 C 17.09375 155.832031 16.976562 155.910156 16.839844 155.96875 C 16.703125 156.023438 16.558594 156.054688 16.414062 156.054688 C 16.265625 156.054688 16.125 156.023438 15.988281 155.96875 C 15.851562 155.910156 15.730469 155.832031 15.625 155.726562 C 15.519531 155.621094 15.441406 155.503906 15.382812 155.367188 C 15.328125 155.230469 15.300781 155.085938 15.300781 154.941406 C 15.300781 154.792969 15.328125 154.648438 15.382812 154.515625 C 15.441406 154.378906 15.519531 154.257812 15.625 154.152344 C 15.730469 154.046875 15.851562 153.96875 15.988281 153.910156 C 16.125 153.855469 16.265625 153.828125 16.414062 153.828125 C 16.558594 153.828125 16.703125 153.855469 16.839844 153.910156 C 16.976562 153.96875 17.09375 154.046875 17.199219 154.152344 C 17.304688 154.257812 17.386719 154.378906 17.441406 154.515625 C 17.496094 154.648438 17.527344 154.792969 17.527344 154.941406 Z M 17.527344 154.941406 " fill-opacity="1" fill-rule="nonzero"/><path fill="#f9c80e" d="M 32.253906 205.390625 C 32.253906 205.707031 32.195312 206.011719 32.074219 206.304688 C 31.953125 206.597656 31.777344 206.855469 31.554688 207.078125 C 31.332031 207.300781 31.074219 207.472656 30.78125 207.59375 C 30.488281 207.714844 30.183594 207.777344 29.867188 207.777344 C 29.550781 207.777344 29.246094 207.714844 28.957031 207.59375 C 28.664062 207.472656 28.40625 207.300781 28.179688 207.078125 C 27.957031 206.855469 27.785156 206.597656 27.664062 206.304688 C 27.542969 206.011719 27.484375 205.707031 27.484375 205.390625 C 27.484375 205.074219 27.542969 204.769531 27.664062 204.476562 C 27.785156 204.1875 27.957031 203.925781 28.179688 203.703125 C 28.40625 203.480469 28.664062 203.308594 28.957031 203.1875 C 29.246094 203.066406 29.550781 203.003906 29.867188 203.003906 C 30.183594 203.003906 30.488281 203.066406 30.78125 203.1875 C 31.074219 203.308594 31.332031 203.480469 31.554688 203.703125 C 31.777344 203.925781 31.953125 204.1875 32.074219 204.476562 C 32.195312 204.769531 32.253906 205.074219 32.253906 205.390625 Z M 32.253906 205.390625 " fill-opacity="1" fill-rule="nonzero"/><path fill="#e40f37" d="M 30.980469 205.390625 C 30.980469 205.539062 30.953125 205.679688 30.898438 205.816406 C 30.839844 205.953125 30.761719 206.074219 30.65625 206.179688 C 30.550781 206.28125 30.429688 206.363281 30.292969 206.417969 C 30.15625 206.476562 30.015625 206.503906 29.867188 206.503906 C 29.722656 206.503906 29.578125 206.476562 29.441406 206.417969 C 29.304688 206.363281 29.1875 206.28125 29.082031 206.179688 C 28.976562 206.074219 28.894531 205.953125 28.839844 205.816406 C 28.785156 205.679688 28.753906 205.539062 28.753906 205.390625 C 28.753906 205.242188 28.785156 205.101562 28.839844 204.964844 C 28.894531 204.828125 28.976562 204.707031 29.082031 204.605469 C 29.1875 204.5 29.304688 204.417969 29.441406 204.363281 C 29.578125 204.304688 29.722656 204.277344 29.867188 204.277344 C 30.015625 204.277344 30.15625 204.304688 30.292969 204.363281 C 30.429688 204.417969 30.550781 204.5 30.65625 204.605469 C 30.761719 204.707031 30.839844 204.828125 30.898438 204.964844 C 30.953125 205.101562 30.980469 205.242188 30.980469 205.390625 Z M 30.980469 205.390625 " fill-opacity="1" fill-rule="nonzero"/><path fill="#f9c80e" d="M 54.554688 234.117188 L 60.980469 234.117188 L 60.980469 241.113281 L 54.554688 241.113281 Z M 54.554688 234.117188 " fill-opacity="1" fill-rule="nonzero"/><path fill="#f9c80e" d="M 60.980469 241.335938 L 54.554688 241.335938 C 54.425781 241.335938 54.296875 241.242188 54.296875 241.082031 L 54.296875 234.082031 C 54.296875 233.957031 54.394531 233.828125 54.554688 233.828125 L 60.980469 233.828125 C 61.105469 233.828125 61.234375 233.925781 61.234375 234.082031 L 61.234375 241.082031 C 61.203125 241.242188 61.105469 241.335938 60.980469 241.335938 Z M 54.777344 240.859375 L 60.722656 240.859375 L 60.722656 234.339844 L 54.777344 234.339844 Z M 54.777344 240.859375 " fill-opacity="1" fill-rule="nonzero"/><path fill="#f9c80e" d="M 62.25 240.605469 L 60.945312 240.605469 C 60.691406 240.605469 60.46875 240.382812 60.46875 240.128906 C 60.46875 239.875 60.691406 239.652344 60.945312 239.652344 L 62.25 239.652344 C 62.503906 239.652344 62.730469 239.875 62.730469 240.128906 C 62.730469 240.382812 62.539062 240.605469 62.25 240.605469 Z M 62.25 240.605469 " fill-opacity="1" fill-rule="nonzero"/><path fill="#f9c80e" d="M 62.25 238.917969 L 60.945312 238.917969 C 60.691406 238.917969 60.46875 238.695312 60.46875 238.441406 C 60.46875 238.1875 60.691406 237.964844 60.945312 237.964844 L 62.25 237.964844 C 62.503906 237.964844 62.730469 238.1875 62.730469 238.441406 C 62.730469 238.695312 62.539062 238.917969 62.25 238.917969 Z M 62.25 238.917969 " fill-opacity="1" fill-rule="nonzero"/><path fill="#f9c80e" d="M 62.25 237.234375 L 60.945312 237.234375 C 60.691406 237.234375 60.46875 237.011719 60.46875 236.753906 C 60.46875 236.5 60.691406 236.277344 60.945312 236.277344 L 62.25 236.277344 C 62.503906 236.277344 62.730469 236.5 62.730469 236.753906 C 62.730469 237.011719 62.539062 237.234375 62.25 237.234375 Z M 62.25 237.234375 " fill-opacity="1" fill-rule="nonzero"/><path fill="#f9c80e" d="M 62.25 235.546875 L 60.945312 235.546875 C 60.691406 235.546875 60.46875 235.324219 60.46875 235.070312 C 60.46875 234.816406 60.691406 234.59375 60.945312 234.59375 L 62.25 234.59375 C 62.503906 234.59375 62.730469 234.816406 62.730469 235.070312 C 62.730469 235.324219 62.539062 235.546875 62.25 235.546875 Z M 62.25 235.546875 " fill-opacity="1" fill-rule="nonzero"/><path fill="#f9c80e" d="M 54.554688 240.605469 L 53.25 240.605469 C 52.996094 240.605469 52.773438 240.382812 52.773438 240.128906 C 52.773438 239.875 52.996094 239.652344 53.25 239.652344 L 54.554688 239.652344 C 54.808594 239.652344 55.03125 239.875 55.03125 240.128906 C 55.03125 240.382812 54.808594 240.605469 54.554688 240.605469 Z M 54.554688 240.605469 " fill-opacity="1" fill-rule="nonzero"/><path fill="#f9c80e" d="M 54.554688 238.917969 L 53.25 238.917969 C 52.996094 238.917969 52.773438 238.695312 52.773438 238.441406 C 52.773438 238.1875 52.996094 237.964844 53.25 237.964844 L 54.554688 237.964844 C 54.808594 237.964844 55.03125 238.1875 55.03125 238.441406 C 55.03125 238.695312 54.808594 238.917969 54.554688 238.917969 Z M 54.554688 238.917969 " fill-opacity="1" fill-rule="nonzero"/><path fill="#f9c80e" d="M 54.554688 237.234375 L 53.25 237.234375 C 52.996094 237.234375 52.773438 237.011719 52.773438 236.753906 C 52.773438 236.5 52.996094 236.277344 53.25 236.277344 L 54.554688 236.277344 C 54.808594 236.277344 55.03125 236.5 55.03125 236.753906 C 55.03125 237.011719 54.808594 237.234375 54.554688 237.234375 Z M 54.554688 237.234375 " fill-opacity="1" fill-rule="nonzero"/><path fill="#f9c80e" d="M 54.554688 235.546875 L 53.25 235.546875 C 52.996094 235.546875 52.773438 235.324219 52.773438 235.070312 C 52.773438 234.816406 52.996094 234.59375 53.25 234.59375 L 54.554688 234.59375 C 54.808594 234.59375 55.03125 234.816406 55.03125 235.070312 C 55.03125 235.324219 54.808594 235.546875 54.554688 235.546875 Z M 54.554688 235.546875 " fill-opacity="1" fill-rule="nonzero"/><path fill="#f9c80e" d="M 128.640625 244.964844 L 114.484375 244.964844 C 114.230469 244.964844 114.007812 244.742188 114.007812 244.484375 C 114.007812 244.230469 114.230469 244.007812 114.484375 244.007812 L 128.449219 244.007812 L 145.878906 226.578125 C 145.976562 226.480469 146.101562 226.449219 146.230469 226.449219 L 199.765625 226.449219 C 200.023438 226.449219 200.246094 226.671875 200.246094 226.925781 C 200.246094 227.179688 200.023438 227.402344 199.765625 227.402344 L 146.421875 227.402344 L 128.988281 244.835938 C 128.894531 244.898438 128.765625 244.964844 128.640625 244.964844 Z M 128.640625 244.964844 " fill-opacity="1" fill-rule="nonzero"/><path fill="#f9c80e" d="M 94.09375 244.964844 L 37.757812 244.964844 C 37.628906 244.964844 37.503906 244.898438 37.40625 244.835938 L 26.050781 233.480469 C 25.957031 233.382812 25.925781 233.257812 25.925781 233.128906 L 25.925781 190.089844 L 16.0625 180.230469 C 15.96875 180.132812 15.9375 180.007812 15.9375 179.878906 L 15.9375 157.292969 C 15.9375 157.039062 16.160156 156.816406 16.414062 156.816406 C 16.667969 156.816406 16.890625 157.039062 16.890625 157.292969 L 16.890625 179.65625 L 26.75 189.515625 C 26.847656 189.613281 26.878906 189.742188 26.878906 189.867188 L 26.878906 232.90625 L 37.949219 243.976562 L 94.09375 243.976562 C 94.347656 243.976562 94.570312 244.199219 94.570312 244.453125 C 94.570312 244.707031 94.347656 244.964844 94.09375 244.964844 Z M 94.09375 244.964844 " fill-opacity="1" fill-rule="nonzero"/><path fill="#f9c80e" d="M 26.402344 205.167969 C 26.273438 205.167969 26.148438 205.136719 26.050781 205.039062 L 18.097656 197.089844 C 18.003906 196.992188 17.972656 196.867188 17.972656 196.738281 L 17.972656 187.769531 C 17.972656 187.511719 18.195312 187.289062 18.449219 187.289062 C 18.703125 187.289062 18.925781 187.511719 18.925781 187.769531 L 18.925781 196.546875 L 26.75 204.371094 C 26.941406 204.5625 26.941406 204.851562 26.75 205.039062 C 26.65625 205.136719 26.527344 205.167969 26.402344 205.167969 Z M 26.402344 205.167969 " fill-opacity="1" fill-rule="nonzero"/><path fill="#f9c80e" d="M 24.300781 188.246094 C 24.046875 188.246094 23.824219 188.023438 23.824219 187.769531 L 23.824219 178.925781 L 20.484375 175.585938 C 20.390625 175.488281 20.355469 175.363281 20.355469 175.234375 L 20.355469 169.285156 C 20.355469 169.03125 20.578125 168.808594 20.835938 168.808594 C 21.089844 168.808594 21.3125 169.03125 21.3125 169.285156 L 21.3125 175.042969 L 24.652344 178.382812 C 24.746094 178.480469 24.777344 178.605469 24.777344 178.734375 L 24.777344 187.769531 C 24.777344 188.054688 24.554688 188.246094 24.300781 188.246094 Z M 24.300781 188.246094 " fill-opacity="1" fill-rule="nonzero"/><path fill="#f9c80e" d="M 68.582031 244.964844 C 68.453125 244.964844 68.328125 244.929688 68.230469 244.835938 C 68.039062 244.644531 68.039062 244.359375 68.230469 244.167969 L 75.101562 237.296875 C 75.199219 237.203125 75.324219 237.167969 75.453125 237.167969 L 123.996094 237.167969 C 124.25 237.167969 124.472656 237.390625 124.472656 237.648438 C 124.472656 237.902344 124.25 238.125 123.996094 238.125 L 75.644531 238.125 L 68.898438 244.867188 C 68.835938 244.898438 68.707031 244.964844 68.582031 244.964844 Z M 68.582031 244.964844 " fill-opacity="1" fill-rule="nonzero"/><path fill="#f9c80e" d="M 178.390625 245.121094 L 165.761719 245.121094 C 165.636719 245.121094 165.507812 245.058594 165.414062 244.996094 L 157.015625 236.597656 L 137.003906 236.597656 C 136.75 236.597656 136.527344 236.375 136.527344 236.121094 C 136.527344 235.863281 136.75 235.640625 137.003906 235.640625 L 157.238281 235.640625 C 157.363281 235.640625 157.492188 235.707031 157.585938 235.769531 L 165.984375 244.167969 L 178.421875 244.167969 C 178.675781 244.167969 178.898438 244.390625 178.898438 244.644531 C 178.898438 244.898438 178.644531 245.121094 178.390625 245.121094 Z M 178.390625 245.121094 " fill-opacity="1" fill-rule="nonzero"/><path fill="#f9c80e" d="M 30.886719 238.09375 C 30.757812 238.09375 30.632812 238.058594 30.535156 237.964844 C 30.34375 237.773438 30.34375 237.488281 30.535156 237.296875 L 34.289062 233.542969 L 34.289062 225.652344 C 34.289062 225.398438 34.511719 225.175781 34.765625 225.175781 C 35.023438 225.175781 35.246094 225.398438 35.246094 225.652344 L 35.246094 233.734375 C 35.246094 233.859375 35.179688 233.988281 35.117188 234.082031 L 31.238281 237.964844 C 31.109375 238.027344 31.011719 238.09375 30.886719 238.09375 Z M 30.886719 238.09375 " fill-opacity="1" fill-rule="nonzero"/><path fill="#f9c80e" d="M 62.664062 244.964844 C 62.539062 244.964844 62.410156 244.929688 62.316406 244.835938 C 62.125 244.644531 62.125 244.359375 62.316406 244.167969 L 74.179688 232.300781 C 74.277344 232.207031 74.402344 232.175781 74.53125 232.175781 L 101.824219 232.175781 L 108.34375 225.652344 C 108.535156 225.464844 108.820312 225.464844 109.011719 225.652344 C 109.203125 225.84375 109.203125 226.132812 109.011719 226.320312 L 102.363281 232.96875 C 102.269531 233.066406 102.140625 233.097656 102.015625 233.097656 L 74.722656 233.097656 L 63.015625 244.804688 C 62.917969 244.898438 62.792969 244.964844 62.664062 244.964844 Z M 62.664062 244.964844 " fill-opacity="1" fill-rule="nonzero"/><path fill="#f9c80e" d="M 164.171875 238.1875 C 164.042969 238.1875 163.917969 238.15625 163.820312 238.058594 L 158.507812 232.746094 L 140.855469 232.746094 C 140.601562 232.746094 140.378906 232.523438 140.378906 232.269531 C 140.378906 232.015625 140.601562 231.792969 140.855469 231.792969 L 158.699219 231.792969 C 158.828125 231.792969 158.953125 231.855469 159.050781 231.921875 L 164.523438 237.359375 C 164.710938 237.550781 164.710938 237.835938 164.523438 238.027344 C 164.425781 238.125 164.296875 238.1875 164.171875 238.1875 Z M 164.171875 238.1875 " fill-opacity="1" fill-rule="nonzero"/><path fill="#f9c80e" d="M 26.402344 213.121094 C 26.273438 213.121094 26.148438 213.089844 26.050781 212.992188 L 9.699219 196.609375 C 9.605469 196.515625 9.574219 196.386719 9.574219 196.261719 L 9.574219 180.261719 C 9.574219 180.007812 9.796875 179.785156 10.050781 179.785156 C 10.304688 179.785156 10.527344 180.007812 10.527344 180.261719 L 10.527344 196.070312 L 26.75 212.292969 C 26.941406 212.484375 26.941406 212.769531 26.75 212.960938 C 26.65625 213.058594 26.527344 213.121094 26.402344 213.121094 Z M 26.402344 213.121094 " fill-opacity="1" fill-rule="nonzero"/><path fill="#f9c80e" d="M 111.046875 225.972656 C 111.046875 226.289062 110.988281 226.59375 110.867188 226.886719 C 110.746094 227.175781 110.574219 227.433594 110.347656 227.660156 C 110.125 227.882812 109.867188 228.054688 109.574219 228.175781 C 109.285156 228.296875 108.980469 228.359375 108.664062 228.359375 C 108.347656 228.359375 108.042969 228.296875 107.75 228.175781 C 107.457031 228.054688 107.199219 227.882812 106.976562 227.660156 C 106.75 227.433594 106.578125 227.175781 106.457031 226.886719 C 106.335938 226.59375 106.277344 226.289062 106.277344 225.972656 C 106.277344 225.65625 106.335938 225.351562 106.457031 225.058594 C 106.578125 224.765625 106.75 224.507812 106.976562 224.285156 C 107.199219 224.0625 107.457031 223.890625 107.75 223.769531 C 108.042969 223.648438 108.347656 223.585938 108.664062 223.585938 C 108.980469 223.585938 109.285156 223.648438 109.574219 223.769531 C 109.867188 223.890625 110.125 224.0625 110.347656 224.285156 C 110.574219 224.507812 110.746094 224.765625 110.867188 225.058594 C 110.988281 225.351562 111.046875 225.65625 111.046875 225.972656 Z M 111.046875 225.972656 " fill-opacity="1" fill-rule="nonzero"/><path fill="#e40f37" d="M 109.777344 225.972656 C 109.777344 226.121094 109.746094 226.261719 109.691406 226.398438 C 109.632812 226.535156 109.554688 226.65625 109.449219 226.757812 C 109.34375 226.863281 109.226562 226.945312 109.089844 227 C 108.953125 227.058594 108.808594 227.085938 108.664062 227.085938 C 108.515625 227.085938 108.371094 227.058594 108.238281 227 C 108.101562 226.945312 107.980469 226.863281 107.875 226.757812 C 107.769531 226.65625 107.691406 226.535156 107.632812 226.398438 C 107.578125 226.261719 107.550781 226.121094 107.550781 225.972656 C 107.550781 225.824219 107.578125 225.683594 107.632812 225.546875 C 107.691406 225.410156 107.769531 225.289062 107.875 225.183594 C 107.980469 225.082031 108.101562 225 108.238281 224.945312 C 108.371094 224.886719 108.515625 224.859375 108.664062 224.859375 C 108.808594 224.859375 108.953125 224.886719 109.089844 224.945312 C 109.226562 225 109.34375 225.082031 109.449219 225.183594 C 109.554688 225.289062 109.632812 225.410156 109.691406 225.546875 C 109.746094 225.683594 109.777344 225.824219 109.777344 225.972656 Z M 109.777344 225.972656 " fill-opacity="1" fill-rule="nonzero"/><path fill="#f9c80e" d="M 96.480469 244.484375 C 96.480469 244.800781 96.417969 245.105469 96.296875 245.398438 C 96.175781 245.691406 96.003906 245.949219 95.78125 246.171875 C 95.558594 246.394531 95.296875 246.570312 95.007812 246.691406 C 94.714844 246.8125 94.410156 246.871094 94.09375 246.871094 C 93.777344 246.871094 93.472656 246.8125 93.179688 246.691406 C 92.886719 246.570312 92.628906 246.394531 92.40625 246.171875 C 92.183594 245.949219 92.011719 245.691406 91.890625 245.398438 C 91.769531 245.105469 91.707031 244.800781 91.707031 244.484375 C 91.707031 244.167969 91.769531 243.863281 91.890625 243.574219 C 92.011719 243.28125 92.183594 243.023438 92.40625 242.796875 C 92.628906 242.574219 92.886719 242.402344 93.179688 242.28125 C 93.472656 242.160156 93.777344 242.101562 94.09375 242.101562 C 94.410156 242.101562 94.714844 242.160156 95.007812 242.28125 C 95.296875 242.402344 95.558594 242.574219 95.78125 242.796875 C 96.003906 243.023438 96.175781 243.28125 96.296875 243.574219 C 96.417969 243.863281 96.480469 244.167969 96.480469 244.484375 Z M 96.480469 244.484375 " fill-opacity="1" fill-rule="nonzero"/><path fill="#e40f37" d="M 95.207031 244.484375 C 95.207031 244.632812 95.179688 244.777344 95.121094 244.910156 C 95.066406 245.046875 94.984375 245.167969 94.878906 245.273438 C 94.777344 245.378906 94.65625 245.457031 94.519531 245.515625 C 94.382812 245.570312 94.242188 245.597656 94.09375 245.597656 C 93.945312 245.597656 93.804688 245.570312 93.667969 245.515625 C 93.53125 245.457031 93.410156 245.378906 93.304688 245.273438 C 93.203125 245.167969 93.121094 245.046875 93.066406 244.910156 C 93.007812 244.777344 92.980469 244.632812 92.980469 244.484375 C 92.980469 244.339844 93.007812 244.195312 93.066406 244.058594 C 93.121094 243.921875 93.203125 243.804688 93.304688 243.699219 C 93.410156 243.59375 93.53125 243.511719 93.667969 243.457031 C 93.804688 243.402344 93.945312 243.371094 94.09375 243.371094 C 94.242188 243.371094 94.382812 243.402344 94.519531 243.457031 C 94.65625 243.511719 94.777344 243.59375 94.878906 243.699219 C 94.984375 243.804688 95.066406 243.921875 95.121094 244.058594 C 95.179688 244.195312 95.207031 244.339844 95.207031 244.484375 Z M 95.207031 244.484375 " fill-opacity="1" fill-rule="nonzero"/><path fill="#f9c80e" d="M 166.558594 237.710938 C 166.558594 238.027344 166.496094 238.332031 166.375 238.625 C 166.253906 238.914062 166.082031 239.171875 165.859375 239.398438 C 165.636719 239.621094 165.375 239.792969 165.085938 239.914062 C 164.792969 240.035156 164.488281 240.097656 164.171875 240.097656 C 163.855469 240.097656 163.550781 240.035156 163.257812 239.914062 C 162.964844 239.792969 162.707031 239.621094 162.484375 239.398438 C 162.261719 239.171875 162.089844 238.914062 161.96875 238.625 C 161.847656 238.332031 161.785156 238.027344 161.785156 237.710938 C 161.785156 237.394531 161.847656 237.089844 161.96875 236.796875 C 162.089844 236.503906 162.261719 236.246094 162.484375 236.023438 C 162.707031 235.800781 162.964844 235.628906 163.257812 235.507812 C 163.550781 235.386719 163.855469 235.324219 164.171875 235.324219 C 164.488281 235.324219 164.792969 235.386719 165.085938 235.507812 C 165.375 235.628906 165.636719 235.800781 165.859375 236.023438 C 166.082031 236.246094 166.253906 236.503906 166.375 236.796875 C 166.496094 237.089844 166.558594 237.394531 166.558594 237.710938 Z M 166.558594 237.710938 " fill-opacity="1" fill-rule="nonzero"/><path fill="#e40f37" d="M 164.171875 238.824219 C 163.566406 238.824219 163.058594 238.316406 163.058594 237.710938 C 163.058594 237.105469 163.566406 236.597656 164.171875 236.597656 C 164.777344 236.597656 165.285156 237.105469 165.285156 237.710938 C 165.285156 238.316406 164.777344 238.824219 164.171875 238.824219 Z M 164.171875 238.824219 " fill-opacity="1" fill-rule="nonzero"/><path fill="#f9c80e" d="M 26.402344 233.605469 C 26.273438 233.605469 26.148438 233.574219 26.050781 233.480469 C 25.859375 233.289062 25.859375 233.003906 26.050781 232.8125 L 29.390625 229.472656 L 29.390625 207.777344 C 29.390625 207.523438 29.613281 207.300781 29.867188 207.300781 C 30.121094 207.300781 30.34375 207.523438 30.34375 207.777344 L 30.34375 229.664062 C 30.34375 229.789062 30.28125 229.917969 30.21875 230.011719 L 26.75 233.480469 C 26.65625 233.542969 26.527344 233.605469 26.402344 233.605469 Z M 26.402344 233.605469 " fill-opacity="1" fill-rule="nonzero"/><path fill="#f9c80e" d="M 140.886719 248.972656 L 132.679688 248.972656 C 132.550781 248.972656 132.425781 248.90625 132.328125 248.84375 L 128.289062 244.804688 C 128.097656 244.613281 128.097656 244.328125 128.289062 244.136719 C 128.480469 243.945312 128.765625 243.945312 128.957031 244.136719 L 132.839844 248.015625 L 140.824219 248.015625 C 141.078125 248.015625 141.300781 248.238281 141.300781 248.492188 C 141.300781 248.75 141.140625 248.972656 140.886719 248.972656 Z M 140.886719 248.972656 " fill-opacity="1" fill-rule="nonzero"/><path fill="#f9c80e" d="M 37.757812 244.964844 C 37.628906 244.964844 37.503906 244.929688 37.40625 244.835938 C 37.214844 244.644531 37.214844 244.359375 37.40625 244.167969 L 56.238281 225.335938 C 56.335938 225.242188 56.460938 225.207031 56.589844 225.207031 L 80.289062 225.207031 C 80.542969 225.207031 80.765625 225.429688 80.765625 225.6875 C 80.765625 225.941406 80.542969 226.164062 80.289062 226.164062 L 56.78125 226.164062 L 38.074219 244.867188 C 38.011719 244.898438 37.882812 244.964844 37.757812 244.964844 Z M 37.757812 244.964844 " fill-opacity="1" fill-rule="nonzero"/><path fill="#f9c80e" d="M 47.554688 234.59375 C 47.300781 234.59375 47.078125 234.371094 47.078125 234.117188 L 47.078125 226.925781 C 47.078125 226.800781 47.140625 226.671875 47.207031 226.578125 L 52.484375 221.296875 C 52.582031 221.199219 52.707031 221.167969 52.835938 221.167969 L 67.117188 221.167969 C 67.371094 221.167969 67.59375 221.390625 67.59375 221.644531 C 67.59375 221.902344 67.371094 222.125 67.117188 222.125 L 53.027344 222.125 L 48.03125 227.117188 L 48.03125 234.117188 C 48.03125 234.371094 47.808594 234.59375 47.554688 234.59375 Z M 47.554688 234.59375 " fill-opacity="1" fill-rule="nonzero"/><path fill="#f9c80e" d="M 90.179688 229.25 L 83.4375 229.25 C 83.308594 229.25 83.183594 229.183594 83.085938 229.121094 L 79.9375 225.972656 C 79.746094 225.78125 79.746094 225.496094 79.9375 225.304688 C 80.128906 225.113281 80.414062 225.113281 80.605469 225.304688 L 83.597656 228.292969 L 90.117188 228.292969 C 90.371094 228.292969 90.59375 228.515625 90.59375 228.769531 C 90.59375 229.027344 90.433594 229.25 90.179688 229.25 Z M 90.179688 229.25 " fill-opacity="1" fill-rule="nonzero"/><path fill="#f9c80e" d="M 29.136719 244.453125 C 29.007812 244.453125 28.882812 244.421875 28.785156 244.328125 L 19.054688 234.59375 C 18.957031 234.496094 18.925781 234.371094 18.925781 234.242188 L 18.925781 215.507812 C 18.925781 215.253906 19.148438 215.03125 19.402344 215.03125 C 19.65625 215.03125 19.878906 215.253906 19.878906 215.507812 L 19.878906 234.019531 L 29.488281 243.625 C 29.675781 243.816406 29.675781 244.105469 29.488281 244.292969 C 29.390625 244.390625 29.265625 244.453125 29.136719 244.453125 Z M 29.136719 244.453125 " fill-opacity="1" fill-rule="nonzero"/><path fill="#f9c80e" d="M 99.246094 248.9375 L 72.398438 248.9375 C 72.144531 248.9375 71.921875 248.714844 71.921875 248.460938 C 71.921875 248.207031 72.144531 247.984375 72.398438 247.984375 L 99.023438 247.984375 L 105.066406 241.941406 C 105.257812 241.75 105.546875 241.75 105.734375 241.941406 C 105.925781 242.132812 105.925781 242.417969 105.734375 242.609375 L 99.566406 248.78125 C 99.5 248.875 99.375 248.9375 99.246094 248.9375 Z M 99.246094 248.9375 " fill-opacity="1" fill-rule="nonzero"/><path fill="#f9c80e" d="M 34.894531 211.210938 C 34.640625 211.210938 34.417969 210.988281 34.417969 210.734375 L 34.417969 200.078125 L 31.046875 196.707031 C 30.949219 196.609375 30.917969 196.484375 30.917969 196.355469 L 30.917969 164.386719 L 24.175781 157.675781 C 24.078125 157.578125 24.046875 157.453125 24.046875 157.324219 L 24.046875 138.527344 C 24.046875 138.269531 24.269531 138.046875 24.523438 138.046875 C 24.777344 138.046875 25 138.238281 25 138.527344 L 25 157.167969 L 31.683594 163.847656 C 31.777344 163.941406 31.808594 164.070312 31.808594 164.195312 L 31.808594 196.164062 L 35.179688 199.539062 C 35.277344 199.632812 35.308594 199.761719 35.308594 199.886719 L 35.308594 210.734375 C 35.371094 210.988281 35.148438 211.210938 34.894531 211.210938 Z M 34.894531 211.210938 " fill-opacity="1" fill-rule="nonzero"/><path fill="#fbc623" d="M 330.910156 128.875 C 332.449219 128.875 333.738281 130.128906 333.738281 131.703125 C 333.738281 133.273438 332.480469 134.527344 330.910156 134.527344 C 329.339844 134.527344 328.082031 133.273438 328.082031 131.703125 C 328.082031 130.128906 329.339844 128.875 330.910156 128.875 Z M 330.910156 133.585938 C 331.945312 133.585938 332.796875 132.738281 332.796875 131.703125 C 332.796875 130.664062 331.945312 129.816406 330.910156 129.816406 C 329.875 129.816406 329.027344 130.664062 329.027344 131.703125 C 329.027344 132.738281 329.875 133.585938 330.910156 133.585938 Z M 330.910156 133.585938 " fill-opacity="1" fill-rule="nonzero"/><path fill="#fbc623" d="M 296.609375 130.507812 C 298.148438 130.507812 299.4375 131.765625 299.4375 133.335938 C 299.4375 134.90625 298.179688 136.160156 296.609375 136.160156 C 295.070312 136.160156 293.78125 134.90625 293.78125 133.335938 C 293.78125 131.765625 295.070312 130.507812 296.609375 130.507812 Z M 296.609375 135.21875 C 297.644531 135.21875 298.492188 134.371094 298.492188 133.335938 C 298.492188 132.296875 297.644531 131.449219 296.609375 131.449219 C 295.570312 131.449219 294.722656 132.296875 294.722656 133.335938 C 294.722656 134.371094 295.601562 135.21875 296.609375 135.21875 Z M 296.609375 135.21875 " fill-opacity="1" fill-rule="nonzero"/><path fill="#fbc623" d="M 254.515625 107.921875 C 256.054688 107.921875 257.34375 109.179688 257.34375 110.75 C 257.34375 112.320312 256.085938 113.578125 254.515625 113.578125 C 252.945312 113.578125 251.691406 112.320312 251.691406 110.75 C 251.691406 109.179688 252.976562 107.921875 254.515625 107.921875 Z M 254.515625 112.632812 C 255.554688 112.632812 256.402344 111.785156 256.402344 110.75 C 256.402344 109.714844 255.554688 108.863281 254.515625 108.863281 C 253.480469 108.863281 252.632812 109.714844 252.632812 110.75 C 252.632812 111.785156 253.480469 112.632812 254.515625 112.632812 Z M 254.515625 112.632812 " fill-opacity="1" fill-rule="nonzero"/><g clip-path="url(#02d15a3d06)"><path fill="#fbc623" d="M 296.074219 104.027344 C 297.613281 104.027344 298.902344 105.285156 298.902344 106.855469 C 298.902344 108.425781 297.644531 109.679688 296.074219 109.679688 C 294.535156 109.679688 293.246094 108.425781 293.246094 106.855469 C 293.246094 105.285156 294.535156 104.027344 296.074219 104.027344 Z M 296.074219 108.707031 C 297.109375 108.707031 297.960938 107.859375 297.960938 106.824219 C 297.960938 105.785156 297.109375 104.9375 296.074219 104.9375 C 295.039062 104.9375 294.191406 105.785156 294.191406 106.824219 C 294.191406 107.859375 295.070312 108.707031 296.074219 108.707031 Z M 296.074219 108.707031 " fill-opacity="1" fill-rule="nonzero"/></g><g clip-path="url(#7404f249f4)"><path fill="#fbc623" d="M 165.621094 125.292969 C 167.160156 125.292969 168.449219 126.550781 168.449219 128.121094 C 168.449219 129.691406 167.191406 130.949219 165.621094 130.949219 C 164.082031 130.949219 162.792969 129.691406 162.792969 128.121094 C 162.792969 126.550781 164.082031 125.292969 165.621094 125.292969 Z M 165.621094 129.972656 C 166.65625 129.972656 167.503906 129.125 167.503906 128.089844 C 167.503906 127.050781 166.65625 126.203125 165.621094 126.203125 C 164.582031 126.203125 163.734375 127.050781 163.734375 128.089844 C 163.734375 129.125 164.617188 129.972656 165.621094 129.972656 Z M 165.621094 129.972656 " fill-opacity="1" fill-rule="nonzero"/></g><path fill="#fbc623" d="M 186.730469 107.796875 C 188.269531 107.796875 189.554688 109.054688 189.554688 110.625 C 189.554688 112.195312 188.300781 113.449219 186.730469 113.449219 C 185.191406 113.449219 183.902344 112.195312 183.902344 110.625 C 183.902344 109.054688 185.191406 107.796875 186.730469 107.796875 Z M 186.730469 112.476562 C 187.765625 112.476562 188.613281 111.628906 188.613281 110.59375 C 188.613281 109.554688 187.765625 108.707031 186.730469 108.707031 C 185.691406 108.707031 184.84375 109.554688 184.84375 110.59375 C 184.84375 111.628906 185.691406 112.476562 186.730469 112.476562 Z M 186.730469 112.476562 " fill-opacity="1" fill-rule="nonzero"/><path fill="#fbc623" d="M 344.667969 184.503906 C 346.207031 184.503906 347.496094 185.761719 347.496094 187.332031 C 347.496094 188.871094 346.238281 190.160156 344.667969 190.160156 C 343.128906 190.160156 341.84375 188.902344 341.84375 187.332031 C 341.875 185.761719 343.128906 184.503906 344.667969 184.503906 Z M 344.667969 189.21875 C 345.707031 189.21875 346.554688 188.367188 346.554688 187.332031 C 346.554688 186.296875 345.707031 185.449219 344.667969 185.449219 C 343.632812 185.449219 342.785156 186.296875 342.785156 187.332031 C 342.816406 188.367188 343.632812 189.21875 344.667969 189.21875 Z M 344.667969 189.21875 " fill-opacity="1" fill-rule="nonzero"/><path fill="#fbc623" d="M 330.785156 138.925781 C 332.324219 138.925781 333.613281 140.183594 333.613281 141.753906 C 333.613281 143.324219 332.355469 144.582031 330.785156 144.582031 C 329.246094 144.582031 327.957031 143.324219 327.957031 141.753906 C 327.957031 140.183594 329.246094 138.925781 330.785156 138.925781 Z M 330.785156 143.605469 C 331.820312 143.605469 332.667969 142.757812 332.667969 141.722656 C 332.667969 140.683594 331.820312 139.835938 330.785156 139.835938 C 329.75 139.835938 328.898438 140.683594 328.898438 141.722656 C 328.898438 142.757812 329.75 143.605469 330.785156 143.605469 Z M 330.785156 143.605469 " fill-opacity="1" fill-rule="nonzero"/><g clip-path="url(#f34d8a0ff4)"><path fill="#fbc623" d="M 355.316406 173.699219 C 356.855469 173.699219 358.144531 174.957031 358.144531 176.527344 C 358.144531 178.097656 356.886719 179.351562 355.316406 179.351562 C 353.746094 179.351562 352.492188 178.097656 352.492188 176.527344 C 352.492188 174.957031 353.777344 173.699219 355.316406 173.699219 Z M 355.316406 178.378906 C 356.355469 178.378906 357.203125 177.53125 357.203125 176.496094 C 357.203125 175.457031 356.355469 174.609375 355.316406 174.609375 C 354.28125 174.609375 353.433594 175.457031 353.433594 176.496094 C 353.433594 177.53125 354.28125 178.378906 355.316406 178.378906 Z M 355.316406 178.378906 " fill-opacity="1" fill-rule="nonzero"/></g><path fill="#fbc623" d="M 334.742188 106.730469 C 336.28125 106.730469 337.570312 107.984375 337.570312 109.554688 C 337.570312 111.09375 336.3125 112.382812 334.742188 112.382812 C 333.203125 112.382812 331.914062 111.125 331.914062 109.554688 C 331.914062 107.984375 333.203125 106.730469 334.742188 106.730469 Z M 334.742188 111.410156 C 335.78125 111.410156 336.628906 110.5625 336.628906 109.523438 C 336.628906 108.488281 335.78125 107.640625 334.742188 107.640625 C 333.707031 107.640625 332.859375 108.488281 332.859375 109.523438 C 332.859375 110.59375 333.707031 111.410156 334.742188 111.410156 Z M 334.742188 111.410156 " fill-opacity="1" fill-rule="nonzero"/><path fill="#fbc623" d="M 344.667969 166.757812 C 344.667969 166.445312 344.730469 166.144531 344.847656 165.855469 C 344.96875 165.566406 345.136719 165.3125 345.359375 165.089844 C 345.578125 164.871094 345.835938 164.699219 346.125 164.582031 C 346.410156 164.460938 346.710938 164.402344 347.023438 164.402344 C 347.335938 164.402344 347.636719 164.460938 347.925781 164.582031 C 348.214844 164.699219 348.46875 164.871094 348.691406 165.089844 C 348.910156 165.3125 349.082031 165.566406 349.203125 165.855469 C 349.320312 166.144531 349.382812 166.445312 349.382812 166.757812 C 349.382812 167.070312 349.320312 167.371094 349.203125 167.660156 C 349.082031 167.949219 348.910156 168.203125 348.691406 168.421875 C 348.46875 168.644531 348.214844 168.8125 347.925781 168.933594 C 347.636719 169.054688 347.335938 169.113281 347.023438 169.113281 C 346.710938 169.113281 346.410156 169.054688 346.125 168.933594 C 345.835938 168.8125 345.578125 168.644531 345.359375 168.421875 C 345.136719 168.203125 344.96875 167.949219 344.847656 167.660156 C 344.730469 167.371094 344.667969 167.070312 344.667969 166.757812 Z M 344.667969 166.757812 " fill-opacity="1" fill-rule="nonzero"/><g clip-path="url(#99641b7a61)"><path fill="#fbc623" d="M 338.667969 217.738281 C 338.667969 217.425781 338.730469 217.125 338.847656 216.835938 C 338.96875 216.546875 339.136719 216.292969 339.359375 216.074219 C 339.582031 215.851562 339.835938 215.683594 340.125 215.5625 C 340.414062 215.441406 340.714844 215.382812 341.023438 215.382812 C 341.335938 215.382812 341.636719 215.441406 341.925781 215.5625 C 342.214844 215.683594 342.46875 215.851562 342.691406 216.074219 C 342.914062 216.292969 343.082031 216.546875 343.203125 216.835938 C 343.320312 217.125 343.382812 217.425781 343.382812 217.738281 C 343.382812 218.050781 343.320312 218.351562 343.203125 218.640625 C 343.082031 218.929688 342.914062 219.183594 342.691406 219.40625 C 342.46875 219.625 342.214844 219.796875 341.925781 219.914062 C 341.636719 220.035156 341.335938 220.09375 341.023438 220.09375 C 340.714844 220.09375 340.414062 220.035156 340.125 219.914062 C 339.835938 219.796875 339.582031 219.625 339.359375 219.40625 C 339.136719 219.183594 338.96875 218.929688 338.847656 218.640625 C 338.730469 218.351562 338.667969 218.050781 338.667969 217.738281 Z M 338.667969 217.738281 " fill-opacity="1" fill-rule="nonzero"/></g><path fill="#fbc623" d="M 238.054688 117.535156 C 238.058594 117.222656 238.117188 116.921875 238.234375 116.632812 C 238.355469 116.34375 238.527344 116.089844 238.746094 115.867188 C 238.96875 115.648438 239.222656 115.476562 239.511719 115.359375 C 239.800781 115.238281 240.101562 115.179688 240.414062 115.179688 C 240.726562 115.179688 241.027344 115.238281 241.3125 115.359375 C 241.601562 115.476562 241.859375 115.648438 242.078125 115.867188 C 242.300781 116.089844 242.46875 116.34375 242.589844 116.632812 C 242.707031 116.921875 242.769531 117.222656 242.769531 117.535156 C 242.769531 117.847656 242.707031 118.148438 242.589844 118.4375 C 242.46875 118.726562 242.300781 118.980469 242.078125 119.199219 C 241.859375 119.421875 241.601562 119.589844 241.3125 119.710938 C 241.027344 119.832031 240.726562 119.890625 240.414062 119.890625 C 240.101562 119.890625 239.800781 119.832031 239.511719 119.710938 C 239.222656 119.589844 238.96875 119.421875 238.746094 119.199219 C 238.527344 118.980469 238.355469 118.726562 238.234375 118.4375 C 238.117188 118.148438 238.058594 117.847656 238.054688 117.535156 Z M 238.054688 117.535156 " fill-opacity="1" fill-rule="nonzero"/><path fill="#fbc623" d="M 271.511719 126.265625 C 271.511719 125.953125 271.570312 125.652344 271.691406 125.367188 C 271.808594 125.078125 271.980469 124.820312 272.199219 124.601562 C 272.421875 124.378906 272.675781 124.210938 272.964844 124.089844 C 273.253906 123.972656 273.554688 123.910156 273.867188 123.910156 C 274.179688 123.910156 274.480469 123.972656 274.769531 124.089844 C 275.054688 124.210938 275.3125 124.378906 275.53125 124.601562 C 275.753906 124.820312 275.921875 125.078125 276.042969 125.367188 C 276.164062 125.652344 276.222656 125.953125 276.222656 126.265625 C 276.222656 126.578125 276.164062 126.878906 276.042969 127.167969 C 275.921875 127.457031 275.753906 127.710938 275.53125 127.933594 C 275.3125 128.152344 275.054688 128.324219 274.769531 128.445312 C 274.480469 128.5625 274.179688 128.621094 273.867188 128.621094 C 273.554688 128.621094 273.253906 128.5625 272.964844 128.445312 C 272.675781 128.324219 272.421875 128.152344 272.199219 127.933594 C 271.980469 127.710938 271.808594 127.457031 271.691406 127.167969 C 271.570312 126.878906 271.511719 126.578125 271.511719 126.265625 Z M 271.511719 126.265625 " fill-opacity="1" fill-rule="nonzero"/><path fill="#fbc623" d="M 258.789062 112.917969 C 258.789062 112.605469 258.847656 112.304688 258.96875 112.015625 C 259.085938 111.726562 259.257812 111.472656 259.480469 111.25 C 259.699219 111.03125 259.953125 110.859375 260.242188 110.742188 C 260.53125 110.621094 260.832031 110.5625 261.144531 110.5625 C 261.457031 110.5625 261.757812 110.621094 262.046875 110.742188 C 262.335938 110.859375 262.589844 111.03125 262.808594 111.25 C 263.03125 111.472656 263.203125 111.726562 263.320312 112.015625 C 263.441406 112.304688 263.5 112.605469 263.5 112.917969 C 263.5 113.230469 263.441406 113.53125 263.320312 113.820312 C 263.203125 114.105469 263.03125 114.363281 262.808594 114.582031 C 262.589844 114.804688 262.335938 114.972656 262.046875 115.09375 C 261.757812 115.214844 261.457031 115.273438 261.144531 115.273438 C 260.832031 115.273438 260.53125 115.214844 260.242188 115.09375 C 259.953125 114.972656 259.699219 114.804688 259.480469 114.582031 C 259.257812 114.363281 259.085938 114.105469 258.96875 113.820312 C 258.847656 113.53125 258.789062 113.230469 258.789062 112.917969 Z M 258.789062 112.917969 " fill-opacity="1" fill-rule="nonzero"/><path fill="#fbc623" d="M 343.726562 141.691406 C 343.726562 141.378906 343.785156 141.078125 343.90625 140.789062 C 344.027344 140.5 344.195312 140.246094 344.417969 140.023438 C 344.636719 139.804688 344.890625 139.632812 345.179688 139.515625 C 345.46875 139.394531 345.769531 139.335938 346.082031 139.335938 C 346.394531 139.335938 346.695312 139.394531 346.984375 139.515625 C 347.273438 139.632812 347.527344 139.804688 347.75 140.023438 C 347.96875 140.246094 348.140625 140.5 348.257812 140.789062 C 348.378906 141.078125 348.4375 141.378906 348.4375 141.691406 C 348.4375 142.003906 348.378906 142.304688 348.257812 142.59375 C 348.140625 142.878906 347.96875 143.136719 347.75 143.355469 C 347.527344 143.578125 347.273438 143.746094 346.984375 143.867188 C 346.695312 143.988281 346.394531 144.046875 346.082031 144.046875 C 345.769531 144.046875 345.46875 143.988281 345.179688 143.867188 C 344.890625 143.746094 344.636719 143.578125 344.417969 143.355469 C 344.195312 143.136719 344.027344 142.878906 343.90625 142.59375 C 343.785156 142.304688 343.726562 142.003906 343.726562 141.691406 Z M 343.726562 141.691406 " fill-opacity="1" fill-rule="nonzero"/><g clip-path="url(#1fb6f29b99)"><path fill="#fbc623" d="M 223.765625 106.792969 C 223.765625 106.480469 223.824219 106.179688 223.945312 105.890625 C 224.0625 105.601562 224.234375 105.347656 224.453125 105.125 C 224.675781 104.90625 224.929688 104.734375 225.21875 104.613281 C 225.507812 104.496094 225.808594 104.4375 226.121094 104.4375 C 226.433594 104.4375 226.734375 104.496094 227.023438 104.613281 C 227.308594 104.734375 227.566406 104.90625 227.785156 105.125 C 228.007812 105.347656 228.175781 105.601562 228.296875 105.890625 C 228.417969 106.179688 228.476562 106.480469 228.476562 106.792969 C 228.476562 107.105469 228.417969 107.40625 228.296875 107.691406 C 228.175781 107.980469 228.007812 108.238281 227.785156 108.457031 C 227.566406 108.679688 227.308594 108.847656 227.023438 108.96875 C 226.734375 109.085938 226.433594 109.148438 226.121094 109.148438 C 225.808594 109.148438 225.507812 109.085938 225.21875 108.96875 C 224.929688 108.847656 224.675781 108.679688 224.453125 108.457031 C 224.234375 108.238281 224.0625 107.980469 223.945312 107.691406 C 223.824219 107.40625 223.765625 107.105469 223.765625 106.792969 Z M 223.765625 106.792969 " fill-opacity="1" fill-rule="nonzero"/></g><path fill="#fbc623" d="M 346.679688 199.175781 C 346.679688 198.863281 346.738281 198.5625 346.859375 198.273438 C 346.976562 197.984375 347.148438 197.730469 347.371094 197.507812 C 347.589844 197.289062 347.84375 197.117188 348.132812 196.996094 C 348.421875 196.878906 348.722656 196.820312 349.035156 196.820312 C 349.347656 196.820312 349.648438 196.878906 349.9375 196.996094 C 350.226562 197.117188 350.480469 197.289062 350.703125 197.507812 C 350.921875 197.730469 351.09375 197.984375 351.210938 198.273438 C 351.332031 198.5625 351.390625 198.863281 351.390625 199.175781 C 351.390625 199.488281 351.332031 199.789062 351.210938 200.074219 C 351.09375 200.363281 350.921875 200.621094 350.703125 200.839844 C 350.480469 201.0625 350.226562 201.230469 349.9375 201.351562 C 349.648438 201.46875 349.347656 201.53125 349.035156 201.53125 C 348.722656 201.53125 348.421875 201.46875 348.132812 201.351562 C 347.84375 201.230469 347.589844 201.0625 347.371094 200.839844 C 347.148438 200.621094 346.976562 200.363281 346.859375 200.074219 C 346.738281 199.789062 346.679688 199.488281 346.679688 199.175781 Z M 346.679688 199.175781 " fill-opacity="1" fill-rule="nonzero"/><path fill="#e40f37" d="M 347.9375 199.175781 C 347.9375 199.027344 347.964844 198.886719 348.019531 198.753906 C 348.074219 198.617188 348.15625 198.5 348.257812 198.398438 C 348.359375 198.292969 348.480469 198.214844 348.613281 198.160156 C 348.75 198.101562 348.890625 198.074219 349.035156 198.074219 C 349.179688 198.074219 349.320312 198.101562 349.457031 198.160156 C 349.589844 198.214844 349.710938 198.292969 349.8125 198.398438 C 349.914062 198.5 349.996094 198.617188 350.050781 198.753906 C 350.105469 198.886719 350.136719 199.027344 350.136719 199.175781 C 350.136719 199.320312 350.105469 199.460938 350.050781 199.59375 C 349.996094 199.730469 349.914062 199.847656 349.8125 199.953125 C 349.710938 200.054688 349.589844 200.132812 349.457031 200.191406 C 349.320312 200.246094 349.179688 200.273438 349.035156 200.273438 C 348.890625 200.273438 348.75 200.246094 348.613281 200.191406 C 348.480469 200.132812 348.359375 200.054688 348.257812 199.953125 C 348.15625 199.847656 348.074219 199.730469 348.019531 199.59375 C 347.964844 199.460938 347.9375 199.320312 347.9375 199.175781 Z M 347.9375 199.175781 " fill-opacity="1" fill-rule="nonzero"/><path fill="#fbc623" d="M 333.390625 149.355469 C 333.390625 149.042969 333.453125 148.742188 333.570312 148.453125 C 333.691406 148.164062 333.863281 147.910156 334.082031 147.6875 C 334.304688 147.46875 334.558594 147.296875 334.847656 147.179688 C 335.136719 147.058594 335.4375 147 335.75 147 C 336.058594 147 336.359375 147.058594 336.648438 147.179688 C 336.9375 147.296875 337.191406 147.46875 337.414062 147.6875 C 337.636719 147.910156 337.804688 148.164062 337.925781 148.453125 C 338.042969 148.742188 338.105469 149.042969 338.105469 149.355469 C 338.105469 149.667969 338.042969 149.96875 337.925781 150.257812 C 337.804688 150.546875 337.636719 150.800781 337.414062 151.019531 C 337.191406 151.242188 336.9375 151.410156 336.648438 151.53125 C 336.359375 151.652344 336.058594 151.710938 335.75 151.710938 C 335.4375 151.710938 335.136719 151.652344 334.847656 151.53125 C 334.558594 151.410156 334.304688 151.242188 334.082031 151.019531 C 333.863281 150.800781 333.691406 150.546875 333.570312 150.257812 C 333.453125 149.96875 333.390625 149.667969 333.390625 149.355469 Z M 333.390625 149.355469 " fill-opacity="1" fill-rule="nonzero"/><path fill="#e40f37" d="M 334.648438 149.355469 C 334.648438 149.210938 334.675781 149.070312 334.730469 148.933594 C 334.789062 148.800781 334.867188 148.679688 334.972656 148.578125 C 335.074219 148.472656 335.191406 148.394531 335.328125 148.339844 C 335.460938 148.285156 335.601562 148.253906 335.75 148.253906 C 335.894531 148.253906 336.035156 148.285156 336.167969 148.339844 C 336.304688 148.394531 336.421875 148.472656 336.527344 148.578125 C 336.628906 148.679688 336.707031 148.800781 336.765625 148.933594 C 336.820312 149.070312 336.847656 149.210938 336.847656 149.355469 C 336.847656 149.5 336.820312 149.640625 336.765625 149.777344 C 336.707031 149.910156 336.628906 150.027344 336.527344 150.132812 C 336.421875 150.234375 336.304688 150.316406 336.167969 150.371094 C 336.035156 150.425781 335.894531 150.453125 335.75 150.453125 C 335.601562 150.453125 335.460938 150.425781 335.328125 150.371094 C 335.191406 150.316406 335.074219 150.234375 334.972656 150.132812 C 334.867188 150.027344 334.789062 149.910156 334.730469 149.777344 C 334.675781 149.640625 334.648438 149.5 334.648438 149.355469 Z M 334.648438 149.355469 " fill-opacity="1" fill-rule="nonzero"/><path fill="#fbc623" d="M 311.371094 120.988281 L 305.027344 120.988281 L 305.027344 114.078125 L 311.371094 114.078125 Z M 311.371094 120.988281 " fill-opacity="1" fill-rule="nonzero"/><path fill="#fbc623" d="M 305.027344 113.859375 L 311.371094 113.859375 C 311.496094 113.859375 311.625 113.953125 311.625 114.109375 L 311.625 121.019531 C 311.625 121.148438 311.53125 121.273438 311.371094 121.273438 L 305.027344 121.273438 C 304.902344 121.273438 304.777344 121.179688 304.777344 121.019531 L 304.777344 114.109375 C 304.808594 113.953125 304.902344 113.859375 305.027344 113.859375 Z M 311.152344 114.332031 L 305.277344 114.332031 L 305.277344 120.769531 L 311.152344 120.769531 Z M 311.152344 114.332031 " fill-opacity="1" fill-rule="nonzero"/><path fill="#fbc623" d="M 303.769531 114.582031 L 305.058594 114.582031 C 305.308594 114.582031 305.53125 114.800781 305.53125 115.054688 C 305.53125 115.304688 305.308594 115.523438 305.058594 115.523438 L 303.769531 115.523438 C 303.519531 115.523438 303.300781 115.304688 303.300781 115.054688 C 303.300781 114.800781 303.488281 114.582031 303.769531 114.582031 Z M 303.769531 114.582031 " fill-opacity="1" fill-rule="nonzero"/><path fill="#fbc623" d="M 303.769531 116.246094 L 305.058594 116.246094 C 305.308594 116.246094 305.53125 116.464844 305.53125 116.71875 C 305.53125 116.96875 305.308594 117.1875 305.058594 117.1875 L 303.769531 117.1875 C 303.519531 117.1875 303.300781 116.96875 303.300781 116.71875 C 303.300781 116.464844 303.488281 116.246094 303.769531 116.246094 Z M 303.769531 116.246094 " fill-opacity="1" fill-rule="nonzero"/><path fill="#fbc623" d="M 303.769531 117.910156 L 305.058594 117.910156 C 305.308594 117.910156 305.53125 118.132812 305.53125 118.382812 C 305.53125 118.632812 305.308594 118.855469 305.058594 118.855469 L 303.769531 118.855469 C 303.519531 118.855469 303.300781 118.632812 303.300781 118.382812 C 303.300781 118.132812 303.488281 117.910156 303.769531 117.910156 Z M 303.769531 117.910156 " fill-opacity="1" fill-rule="nonzero"/><path fill="#fbc623" d="M 303.769531 119.578125 L 305.058594 119.578125 C 305.308594 119.578125 305.53125 119.796875 305.53125 120.046875 C 305.53125 120.296875 305.308594 120.519531 305.058594 120.519531 L 303.769531 120.519531 C 303.519531 120.519531 303.300781 120.296875 303.300781 120.046875 C 303.300781 119.796875 303.488281 119.578125 303.769531 119.578125 Z M 303.769531 119.578125 " fill-opacity="1" fill-rule="nonzero"/><path fill="#fbc623" d="M 311.371094 114.582031 L 312.660156 114.582031 C 312.910156 114.582031 313.132812 114.800781 313.132812 115.054688 C 313.132812 115.304688 312.910156 115.523438 312.660156 115.523438 L 311.371094 115.523438 C 311.121094 115.523438 310.902344 115.304688 310.902344 115.054688 C 310.902344 114.800781 311.121094 114.582031 311.371094 114.582031 Z M 311.371094 114.582031 " fill-opacity="1" fill-rule="nonzero"/><path fill="#fbc623" d="M 311.371094 116.246094 L 312.660156 116.246094 C 312.910156 116.246094 313.132812 116.464844 313.132812 116.71875 C 313.132812 116.96875 312.910156 117.1875 312.660156 117.1875 L 311.371094 117.1875 C 311.121094 117.1875 310.902344 116.96875 310.902344 116.71875 C 310.902344 116.464844 311.121094 116.246094 311.371094 116.246094 Z M 311.371094 116.246094 " fill-opacity="1" fill-rule="nonzero"/><path fill="#fbc623" d="M 311.371094 117.910156 L 312.660156 117.910156 C 312.910156 117.910156 313.132812 118.132812 313.132812 118.382812 C 313.132812 118.632812 312.910156 118.855469 312.660156 118.855469 L 311.371094 118.855469 C 311.121094 118.855469 310.902344 118.632812 310.902344 118.382812 C 310.902344 118.132812 311.121094 117.910156 311.371094 117.910156 Z M 311.371094 117.910156 " fill-opacity="1" fill-rule="nonzero"/><path fill="#fbc623" d="M 311.371094 119.578125 L 312.660156 119.578125 C 312.910156 119.578125 313.132812 119.796875 313.132812 120.046875 C 313.132812 120.296875 312.910156 120.519531 312.660156 120.519531 L 311.371094 120.519531 C 311.121094 120.519531 310.902344 120.296875 310.902344 120.046875 C 310.902344 119.796875 311.121094 119.578125 311.371094 119.578125 Z M 311.371094 119.578125 " fill-opacity="1" fill-rule="nonzero"/><path fill="#fbc623" d="M 238.214844 110.277344 L 252.191406 110.277344 C 252.441406 110.277344 252.664062 110.5 252.664062 110.75 C 252.664062 111 252.441406 111.222656 252.191406 111.222656 L 238.402344 111.222656 L 221.1875 128.433594 C 221.09375 128.527344 220.96875 128.558594 220.84375 128.558594 L 167.976562 128.558594 C 167.726562 128.558594 167.503906 128.339844 167.503906 128.089844 C 167.503906 127.835938 167.726562 127.617188 167.976562 127.617188 L 220.65625 127.617188 L 237.867188 110.402344 C 237.960938 110.339844 238.089844 110.277344 238.214844 110.277344 Z M 238.214844 110.277344 " fill-opacity="1" fill-rule="nonzero"/><path fill="#fbc623" d="M 272.328125 110.277344 L 327.957031 110.277344 C 328.082031 110.277344 328.210938 110.339844 328.304688 110.402344 L 339.515625 121.617188 C 339.613281 121.710938 339.644531 121.839844 339.644531 121.964844 L 339.644531 164.464844 L 349.382812 174.203125 C 349.476562 174.296875 349.507812 174.421875 349.507812 174.546875 L 349.507812 196.851562 C 349.507812 197.101562 349.285156 197.320312 349.035156 197.320312 C 348.785156 197.320312 348.5625 197.101562 348.5625 196.851562 L 348.5625 174.765625 L 338.828125 165.03125 C 338.730469 164.933594 338.699219 164.808594 338.699219 164.683594 L 338.699219 122.183594 L 327.769531 111.253906 L 272.328125 111.253906 C 272.074219 111.253906 271.855469 111.03125 271.855469 110.78125 C 271.855469 110.53125 272.074219 110.277344 272.328125 110.277344 Z M 272.328125 110.277344 " fill-opacity="1" fill-rule="nonzero"/><path fill="#fbc623" d="M 339.171875 149.574219 C 339.296875 149.574219 339.421875 149.605469 339.515625 149.699219 L 347.371094 157.554688 C 347.464844 157.648438 347.496094 157.773438 347.496094 157.898438 L 347.496094 166.757812 C 347.496094 167.007812 347.277344 167.226562 347.023438 167.226562 C 346.773438 167.226562 346.554688 167.007812 346.554688 166.757812 L 346.554688 158.085938 L 338.828125 150.359375 C 338.636719 150.171875 338.636719 149.890625 338.828125 149.699219 C 338.921875 149.605469 339.046875 149.574219 339.171875 149.574219 Z M 339.171875 149.574219 " fill-opacity="1" fill-rule="nonzero"/><path fill="#fbc623" d="M 341.246094 166.285156 C 341.496094 166.285156 341.714844 166.507812 341.714844 166.757812 L 341.714844 175.488281 L 345.015625 178.789062 C 345.109375 178.882812 345.140625 179.007812 345.140625 179.132812 L 345.140625 185.007812 C 345.140625 185.257812 344.921875 185.480469 344.667969 185.480469 C 344.417969 185.480469 344.199219 185.257812 344.199219 185.007812 L 344.199219 179.320312 L 340.898438 176.023438 C 340.804688 175.929688 340.773438 175.804688 340.773438 175.679688 L 340.773438 166.757812 C 340.773438 166.472656 340.992188 166.285156 341.246094 166.285156 Z M 341.246094 166.285156 " fill-opacity="1" fill-rule="nonzero"/><path fill="#fbc623" d="M 297.519531 110.277344 C 297.644531 110.277344 297.769531 110.308594 297.863281 110.402344 C 298.054688 110.59375 298.054688 110.875 297.863281 111.0625 L 291.082031 117.847656 C 290.984375 117.941406 290.859375 117.972656 290.734375 117.972656 L 242.800781 117.972656 C 242.546875 117.972656 242.328125 117.753906 242.328125 117.503906 C 242.328125 117.25 242.546875 117.03125 242.800781 117.03125 L 290.546875 117.03125 L 297.207031 110.371094 C 297.269531 110.339844 297.394531 110.277344 297.519531 110.277344 Z M 297.519531 110.277344 " fill-opacity="1" fill-rule="nonzero"/><path fill="#fbc623" d="M 189.085938 110.121094 L 201.554688 110.121094 C 201.679688 110.121094 201.808594 110.183594 201.902344 110.246094 L 210.195312 118.539062 L 229.953125 118.539062 C 230.203125 118.539062 230.421875 118.757812 230.421875 119.011719 C 230.421875 119.261719 230.203125 119.480469 229.953125 119.480469 L 209.972656 119.480469 C 209.847656 119.480469 209.722656 119.417969 209.628906 119.355469 L 201.335938 111.0625 L 189.054688 111.0625 C 188.800781 111.0625 188.582031 110.84375 188.582031 110.59375 C 188.582031 110.339844 188.832031 110.121094 189.085938 110.121094 Z M 189.085938 110.121094 " fill-opacity="1" fill-rule="nonzero"/><path fill="#fbc623" d="M 334.742188 117.0625 C 334.867188 117.0625 334.996094 117.09375 335.089844 117.1875 C 335.277344 117.378906 335.277344 117.660156 335.089844 117.847656 L 331.382812 121.554688 L 331.382812 129.34375 C 331.382812 129.597656 331.160156 129.816406 330.910156 129.816406 C 330.660156 129.816406 330.441406 129.597656 330.441406 129.34375 L 330.441406 121.367188 C 330.441406 121.242188 330.503906 121.117188 330.566406 121.019531 L 334.398438 117.1875 C 334.523438 117.125 334.617188 117.0625 334.742188 117.0625 Z M 334.742188 117.0625 " fill-opacity="1" fill-rule="nonzero"/><path fill="#fbc623" d="M 303.363281 110.277344 C 303.488281 110.277344 303.613281 110.308594 303.707031 110.402344 C 303.894531 110.59375 303.894531 110.875 303.707031 111.0625 L 291.992188 122.78125 C 291.898438 122.875 291.769531 122.90625 291.644531 122.90625 L 264.695312 122.90625 L 258.253906 129.34375 C 258.066406 129.535156 257.785156 129.535156 257.59375 129.34375 C 257.40625 129.15625 257.40625 128.875 257.59375 128.6875 L 264.160156 122.121094 C 264.253906 122.027344 264.378906 121.996094 264.503906 121.996094 L 291.457031 121.996094 L 303.015625 110.433594 C 303.109375 110.339844 303.238281 110.277344 303.363281 110.277344 Z M 303.363281 110.277344 " fill-opacity="1" fill-rule="nonzero"/><path fill="#fbc623" d="M 203.125 116.96875 C 203.253906 116.96875 203.378906 117 203.472656 117.09375 L 208.71875 122.339844 L 226.152344 122.339844 C 226.402344 122.339844 226.621094 122.558594 226.621094 122.8125 C 226.621094 123.0625 226.402344 123.28125 226.152344 123.28125 L 208.53125 123.28125 C 208.402344 123.28125 208.277344 123.21875 208.183594 123.15625 L 202.78125 117.785156 C 202.59375 117.597656 202.59375 117.316406 202.78125 117.125 C 202.875 117.03125 203 116.96875 203.125 116.96875 Z M 203.125 116.96875 " fill-opacity="1" fill-rule="nonzero"/><path fill="#fbc623" d="M 339.171875 141.722656 C 339.296875 141.722656 339.421875 141.753906 339.515625 141.847656 L 355.664062 158.023438 C 355.757812 158.117188 355.789062 158.246094 355.789062 158.371094 L 355.789062 174.171875 C 355.789062 174.421875 355.570312 174.640625 355.316406 174.640625 C 355.066406 174.640625 354.847656 174.421875 354.847656 174.171875 L 354.847656 158.558594 L 338.828125 142.539062 C 338.636719 142.351562 338.636719 142.066406 338.828125 141.878906 C 338.921875 141.785156 339.046875 141.722656 339.171875 141.722656 Z M 339.171875 141.722656 " fill-opacity="1" fill-rule="nonzero"/><path fill="#fbc623" d="M 255.585938 129.03125 C 255.585938 128.71875 255.644531 128.417969 255.765625 128.128906 C 255.882812 127.839844 256.054688 127.585938 256.273438 127.367188 C 256.496094 127.144531 256.75 126.972656 257.039062 126.855469 C 257.328125 126.734375 257.628906 126.675781 257.941406 126.675781 C 258.253906 126.675781 258.554688 126.734375 258.84375 126.855469 C 259.128906 126.972656 259.386719 127.144531 259.605469 127.367188 C 259.828125 127.585938 259.996094 127.839844 260.117188 128.128906 C 260.238281 128.417969 260.296875 128.71875 260.296875 129.03125 C 260.296875 129.34375 260.238281 129.644531 260.117188 129.933594 C 259.996094 130.222656 259.828125 130.476562 259.605469 130.695312 C 259.386719 130.917969 259.128906 131.089844 258.84375 131.207031 C 258.554688 131.328125 258.253906 131.386719 257.941406 131.386719 C 257.628906 131.386719 257.328125 131.328125 257.039062 131.207031 C 256.75 131.089844 256.496094 130.917969 256.273438 130.695312 C 256.054688 130.476562 255.882812 130.222656 255.765625 129.933594 C 255.644531 129.644531 255.585938 129.34375 255.585938 129.03125 Z M 255.585938 129.03125 " fill-opacity="1" fill-rule="nonzero"/><path fill="#e40f37" d="M 256.839844 129.03125 C 256.839844 128.886719 256.867188 128.746094 256.925781 128.609375 C 256.980469 128.476562 257.058594 128.355469 257.164062 128.253906 C 257.265625 128.152344 257.386719 128.070312 257.519531 128.015625 C 257.65625 127.960938 257.792969 127.933594 257.941406 127.933594 C 258.085938 127.933594 258.226562 127.960938 258.359375 128.015625 C 258.496094 128.070312 258.613281 128.152344 258.71875 128.253906 C 258.820312 128.355469 258.902344 128.476562 258.957031 128.609375 C 259.011719 128.746094 259.039062 128.886719 259.039062 129.03125 C 259.039062 129.175781 259.011719 129.316406 258.957031 129.453125 C 258.902344 129.585938 258.820312 129.707031 258.71875 129.808594 C 258.613281 129.910156 258.496094 129.992188 258.359375 130.046875 C 258.226562 130.101562 258.085938 130.128906 257.941406 130.128906 C 257.792969 130.128906 257.65625 130.101562 257.519531 130.046875 C 257.386719 129.992188 257.265625 129.910156 257.164062 129.808594 C 257.058594 129.707031 256.980469 129.585938 256.925781 129.453125 C 256.867188 129.316406 256.839844 129.175781 256.839844 129.03125 Z M 256.839844 129.03125 " fill-opacity="1" fill-rule="nonzero"/><path fill="#fbc623" d="M 269.972656 110.75 C 269.972656 110.4375 270.03125 110.136719 270.152344 109.847656 C 270.269531 109.558594 270.441406 109.304688 270.660156 109.082031 C 270.882812 108.863281 271.136719 108.691406 271.425781 108.574219 C 271.714844 108.453125 272.015625 108.394531 272.328125 108.394531 C 272.640625 108.394531 272.941406 108.453125 273.230469 108.574219 C 273.515625 108.691406 273.773438 108.863281 273.992188 109.082031 C 274.214844 109.304688 274.382812 109.558594 274.503906 109.847656 C 274.625 110.136719 274.683594 110.4375 274.683594 110.75 C 274.683594 111.0625 274.625 111.363281 274.503906 111.652344 C 274.382812 111.941406 274.214844 112.195312 273.992188 112.414062 C 273.773438 112.636719 273.515625 112.804688 273.230469 112.925781 C 272.941406 113.046875 272.640625 113.105469 272.328125 113.105469 C 272.015625 113.105469 271.714844 113.046875 271.425781 112.925781 C 271.136719 112.804688 270.882812 112.636719 270.660156 112.414062 C 270.441406 112.195312 270.269531 111.941406 270.152344 111.652344 C 270.03125 111.363281 269.972656 111.0625 269.972656 110.75 Z M 269.972656 110.75 " fill-opacity="1" fill-rule="nonzero"/><path fill="#e40f37" d="M 271.226562 110.75 C 271.226562 110.605469 271.253906 110.464844 271.3125 110.328125 C 271.367188 110.195312 271.445312 110.074219 271.550781 109.972656 C 271.652344 109.867188 271.773438 109.789062 271.90625 109.734375 C 272.042969 109.679688 272.179688 109.648438 272.328125 109.648438 C 272.472656 109.648438 272.613281 109.679688 272.746094 109.734375 C 272.882812 109.789062 273 109.867188 273.105469 109.972656 C 273.207031 110.074219 273.289062 110.195312 273.34375 110.328125 C 273.398438 110.464844 273.425781 110.605469 273.425781 110.75 C 273.425781 110.894531 273.398438 111.035156 273.34375 111.171875 C 273.289062 111.304688 273.207031 111.425781 273.105469 111.527344 C 273 111.628906 272.882812 111.710938 272.746094 111.765625 C 272.613281 111.820312 272.472656 111.847656 272.328125 111.847656 C 272.179688 111.847656 272.042969 111.820312 271.90625 111.765625 C 271.773438 111.710938 271.652344 111.628906 271.550781 111.527344 C 271.445312 111.425781 271.367188 111.304688 271.3125 111.171875 C 271.253906 111.035156 271.226562 110.894531 271.226562 110.75 Z M 271.226562 110.75 " fill-opacity="1" fill-rule="nonzero"/><path fill="#fbc623" d="M 200.769531 117.441406 C 200.769531 117.128906 200.832031 116.828125 200.949219 116.539062 C 201.070312 116.25 201.238281 115.996094 201.460938 115.773438 C 201.679688 115.554688 201.9375 115.382812 202.226562 115.265625 C 202.511719 115.144531 202.8125 115.085938 203.125 115.085938 C 203.4375 115.085938 203.738281 115.144531 204.027344 115.265625 C 204.316406 115.382812 204.570312 115.554688 204.792969 115.773438 C 205.011719 115.996094 205.183594 116.25 205.304688 116.539062 C 205.421875 116.828125 205.480469 117.128906 205.480469 117.441406 C 205.480469 117.753906 205.421875 118.054688 205.304688 118.34375 C 205.183594 118.628906 205.011719 118.886719 204.792969 119.105469 C 204.570312 119.328125 204.316406 119.496094 204.027344 119.617188 C 203.738281 119.738281 203.4375 119.796875 203.125 119.796875 C 202.8125 119.796875 202.511719 119.738281 202.226562 119.617188 C 201.9375 119.496094 201.679688 119.328125 201.460938 119.105469 C 201.238281 118.886719 201.070312 118.628906 200.949219 118.34375 C 200.832031 118.054688 200.769531 117.753906 200.769531 117.441406 Z M 200.769531 117.441406 " fill-opacity="1" fill-rule="nonzero"/><path fill="#e40f37" d="M 203.125 116.339844 C 203.722656 116.339844 204.226562 116.84375 204.226562 117.441406 C 204.226562 118.039062 203.722656 118.539062 203.125 118.539062 C 202.53125 118.539062 202.027344 118.039062 202.027344 117.441406 C 202.027344 116.84375 202.53125 116.339844 203.125 116.339844 Z M 203.125 116.339844 " fill-opacity="1" fill-rule="nonzero"/><path fill="#fbc623" d="M 339.171875 121.492188 C 339.296875 121.492188 339.421875 121.523438 339.515625 121.617188 C 339.707031 121.804688 339.707031 122.089844 339.515625 122.277344 L 336.21875 125.574219 L 336.21875 147 C 336.21875 147.25 336 147.46875 335.75 147.46875 C 335.496094 147.46875 335.277344 147.25 335.277344 147 L 335.277344 125.386719 C 335.277344 125.261719 335.339844 125.136719 335.402344 125.042969 L 338.828125 121.617188 C 338.921875 121.554688 339.046875 121.492188 339.171875 121.492188 Z M 339.171875 121.492188 " fill-opacity="1" fill-rule="nonzero"/><path fill="#fbc623" d="M 226.121094 106.320312 L 234.222656 106.320312 C 234.351562 106.320312 234.476562 106.382812 234.570312 106.445312 L 238.558594 110.433594 C 238.746094 110.625 238.746094 110.90625 238.558594 111.09375 C 238.371094 111.285156 238.089844 111.285156 237.898438 111.09375 L 234.066406 107.261719 L 226.183594 107.261719 C 225.929688 107.261719 225.710938 107.042969 225.710938 106.792969 C 225.710938 106.539062 225.867188 106.320312 226.121094 106.320312 Z M 226.121094 106.320312 " fill-opacity="1" fill-rule="nonzero"/><path fill="#fbc623" d="M 327.957031 110.277344 C 328.082031 110.277344 328.210938 110.308594 328.304688 110.402344 C 328.492188 110.59375 328.492188 110.875 328.304688 111.0625 L 309.707031 129.660156 C 309.613281 129.753906 309.488281 129.785156 309.363281 129.785156 L 285.960938 129.785156 C 285.707031 129.785156 285.488281 129.566406 285.488281 129.3125 C 285.488281 129.0625 285.707031 128.84375 285.960938 128.84375 L 309.171875 128.84375 L 327.644531 110.371094 C 327.707031 110.339844 327.832031 110.277344 327.957031 110.277344 Z M 327.957031 110.277344 " fill-opacity="1" fill-rule="nonzero"/><path fill="#fbc623" d="M 318.28125 120.519531 C 318.535156 120.519531 318.753906 120.738281 318.753906 120.988281 L 318.753906 128.089844 C 318.753906 128.214844 318.691406 128.339844 318.628906 128.433594 L 313.414062 133.648438 C 313.320312 133.742188 313.195312 133.773438 313.070312 133.773438 L 298.964844 133.773438 C 298.714844 133.773438 298.492188 133.554688 298.492188 133.304688 C 298.492188 133.050781 298.714844 132.832031 298.964844 132.832031 L 312.878906 132.832031 L 317.8125 127.902344 L 317.8125 120.988281 C 317.8125 120.738281 318.03125 120.519531 318.28125 120.519531 Z M 318.28125 120.519531 " fill-opacity="1" fill-rule="nonzero"/><path fill="#fbc623" d="M 276.191406 125.796875 L 282.851562 125.796875 C 282.976562 125.796875 283.101562 125.859375 283.195312 125.921875 L 286.304688 129.03125 C 286.492188 129.21875 286.492188 129.503906 286.304688 129.691406 C 286.117188 129.878906 285.835938 129.878906 285.644531 129.691406 L 282.691406 126.738281 L 276.253906 126.738281 C 276.003906 126.738281 275.78125 126.519531 275.78125 126.265625 C 275.78125 126.015625 275.941406 125.796875 276.191406 125.796875 Z M 276.191406 125.796875 " fill-opacity="1" fill-rule="nonzero"/><path fill="#fbc623" d="M 336.46875 110.78125 C 336.597656 110.78125 336.722656 110.8125 336.816406 110.90625 L 346.429688 120.519531 C 346.523438 120.613281 346.554688 120.738281 346.554688 120.863281 L 346.554688 139.367188 C 346.554688 139.617188 346.332031 139.835938 346.082031 139.835938 C 345.832031 139.835938 345.613281 139.617188 345.613281 139.367188 L 345.613281 121.085938 L 336.125 111.597656 C 335.9375 111.410156 335.9375 111.125 336.125 110.9375 C 336.21875 110.84375 336.34375 110.78125 336.46875 110.78125 Z M 336.46875 110.78125 " fill-opacity="1" fill-rule="nonzero"/><path fill="#fbc623" d="M 267.238281 106.351562 L 293.75 106.351562 C 294 106.351562 294.222656 106.570312 294.222656 106.824219 C 294.222656 107.074219 294 107.292969 293.75 107.292969 L 267.457031 107.292969 L 261.488281 113.261719 C 261.300781 113.449219 261.019531 113.449219 260.832031 113.261719 C 260.640625 113.074219 260.640625 112.792969 260.832031 112.601562 L 266.925781 106.507812 C 266.988281 106.414062 267.113281 106.351562 267.238281 106.351562 Z M 267.238281 106.351562 " fill-opacity="1" fill-rule="nonzero"/><path fill="#fbc623" d="M 330.785156 143.605469 C 331.035156 143.605469 331.257812 143.828125 331.257812 144.078125 L 331.257812 154.601562 L 334.585938 157.929688 C 334.679688 158.023438 334.710938 158.148438 334.710938 158.277344 L 334.710938 189.84375 L 341.371094 196.472656 C 341.464844 196.566406 341.496094 196.691406 341.496094 196.820312 L 341.496094 215.382812 C 341.496094 215.632812 341.277344 215.855469 341.023438 215.855469 C 340.773438 215.855469 340.554688 215.664062 340.554688 215.382812 L 340.554688 196.976562 L 333.957031 190.378906 C 333.863281 190.285156 333.832031 190.160156 333.832031 190.035156 L 333.832031 158.464844 L 330.503906 155.136719 C 330.40625 155.039062 330.375 154.914062 330.375 154.789062 L 330.375 144.078125 C 330.3125 143.828125 330.535156 143.605469 330.785156 143.605469 Z M 330.785156 143.605469 " fill-opacity="1" fill-rule="nonzero"/><path fill="#ffffff" d="M 91.683594 156.550781 C 92.367188 159.246094 93.007812 161.644531 93.542969 163.632812 L 97.371094 178.261719 L 88.285156 178.261719 L 72.554688 198.003906 L 102.371094 198.003906 L 106.753906 214.6875 L 133.042969 214.6875 L 107.863281 138.117188 Z M 91.683594 156.550781 " fill-opacity="1" fill-rule="nonzero"/><path fill="#ffffff" d="M 166.023438 205.765625 C 165.359375 206.644531 163.476562 207.5625 161.0625 207.5625 C 157.472656 207.5625 154.886719 205.125 154.886719 201.402344 C 154.886719 197.746094 157.34375 195.136719 160.933594 195.136719 C 164.609375 195.136719 166.363281 198.023438 166.363281 201.148438 L 166.363281 201.765625 L 157.003906 201.765625 C 157.003906 202.046875 157.042969 202.34375 157.066406 202.496094 C 157.492188 204.867188 159.394531 205.832031 161.492188 205.832031 C 163.457031 205.832031 164.71875 204.953125 165.253906 204.375 Z M 164.269531 200.015625 C 163.949219 198.21875 162.988281 196.847656 160.914062 196.847656 C 159.140625 196.847656 157.578125 197.8125 157.109375 200.015625 Z M 164.269531 200.015625 " fill-opacity="1" fill-rule="nonzero"/><path fill="#ffffff" d="M 169.527344 187.585938 L 171.644531 187.585938 L 171.644531 207.222656 L 169.527344 207.222656 Z M 169.527344 187.585938 " fill-opacity="1" fill-rule="nonzero"/><path fill="#ffffff" d="M 185.964844 205.765625 C 185.300781 206.644531 183.441406 207.5625 181.027344 207.5625 C 177.433594 207.5625 174.847656 205.125 174.847656 201.402344 C 174.847656 197.746094 177.308594 195.136719 180.898438 195.136719 C 184.574219 195.136719 186.328125 198.023438 186.328125 201.148438 L 186.328125 201.765625 L 176.964844 201.765625 C 176.964844 202.046875 177.007812 202.34375 177.027344 202.496094 C 177.457031 204.867188 179.359375 205.832031 181.453125 205.832031 C 183.417969 205.832031 184.679688 204.953125 185.214844 204.375 Z M 184.210938 200.015625 C 183.890625 198.21875 182.929688 196.847656 180.855469 196.847656 C 179.082031 196.847656 177.519531 197.8125 177.050781 200.015625 Z M 184.210938 200.015625 " fill-opacity="1" fill-rule="nonzero"/><path fill="#ffffff" d="M 196.800781 207.222656 L 191.5 201.703125 L 191.5 207.222656 L 189.363281 207.222656 L 189.363281 187.585938 L 191.5 187.585938 L 191.5 200.121094 L 195.816406 195.457031 L 198.660156 195.457031 L 193.292969 200.804688 L 199.855469 207.242188 L 196.800781 207.242188 Z M 196.800781 207.222656 " fill-opacity="1" fill-rule="nonzero"/><path fill="#ffffff" d="M 202.828125 207.222656 L 202.828125 197.210938 L 200.648438 197.210938 L 200.648438 195.457031 L 202.828125 195.457031 L 202.828125 191.351562 L 204.941406 191.351562 L 204.941406 195.457031 L 207.828125 195.457031 L 207.828125 197.210938 L 204.941406 197.210938 L 204.941406 207.222656 Z M 202.828125 207.222656 " fill-opacity="1" fill-rule="nonzero"/><path fill="#ffffff" d="M 210.265625 207.222656 L 210.265625 195.4375 L 212.382812 195.4375 L 212.382812 197.210938 C 212.550781 196.632812 213.558594 195.160156 214.925781 195.160156 C 215.886719 195.160156 216.632812 195.5 216.933594 195.714844 L 216.101562 197.703125 C 215.78125 197.488281 215.308594 197.167969 214.648438 197.167969 C 213.277344 197.167969 212.464844 198.730469 212.402344 199.757812 L 212.402344 207.222656 Z M 210.265625 207.222656 " fill-opacity="1" fill-rule="nonzero"/><path fill="#ffffff" d="M 224.394531 207.5625 C 220.84375 207.5625 218.066406 204.824219 218.066406 201.359375 C 218.066406 197.851562 220.84375 195.136719 224.414062 195.136719 C 227.960938 195.136719 230.675781 197.9375 230.675781 201.359375 C 230.675781 204.785156 227.941406 207.5625 224.394531 207.5625 Z M 228.453125 201.359375 C 228.453125 198.773438 226.59375 196.933594 224.394531 196.933594 C 221.976562 196.933594 220.269531 198.792969 220.269531 201.445312 C 220.269531 203.992188 222.214844 205.832031 224.328125 205.832031 C 226.785156 205.808594 228.453125 204.011719 228.453125 201.359375 Z M 228.453125 201.359375 " fill-opacity="1" fill-rule="nonzero"/><path fill="#ffffff" d="M 234.503906 207.222656 L 234.503906 197.210938 L 232.324219 197.210938 L 232.324219 195.457031 L 234.503906 195.457031 L 234.503906 191.351562 L 236.597656 191.351562 L 236.597656 195.457031 L 239.484375 195.457031 L 239.484375 197.210938 L 236.597656 197.210938 L 236.597656 207.222656 Z M 234.503906 207.222656 " fill-opacity="1" fill-rule="nonzero"/><path fill="#ffffff" d="M 252.113281 205.765625 C 251.453125 206.644531 249.570312 207.5625 247.15625 207.5625 C 243.566406 207.5625 240.980469 205.125 240.980469 201.402344 C 240.980469 197.746094 243.4375 195.136719 247.027344 195.136719 C 250.703125 195.136719 252.457031 198.023438 252.457031 201.148438 L 252.457031 201.765625 L 243.09375 201.765625 C 243.09375 202.046875 243.136719 202.34375 243.160156 202.496094 C 243.585938 204.867188 245.488281 205.832031 247.582031 205.832031 C 249.550781 205.832031 250.8125 204.953125 251.34375 204.375 Z M 250.339844 200.015625 C 250.019531 198.21875 249.058594 196.847656 246.984375 196.847656 C 245.210938 196.847656 243.652344 197.8125 243.179688 200.015625 Z M 250.339844 200.015625 " fill-opacity="1" fill-rule="nonzero"/><path fill="#ffffff" d="M 265.496094 205.679688 C 264.726562 206.664062 263.1875 207.5625 260.878906 207.5625 C 257.414062 207.5625 254.765625 204.890625 254.765625 201.359375 C 254.765625 197.789062 257.414062 195.136719 261.070312 195.136719 C 263.207031 195.136719 264.726562 196.25 265.109375 196.613281 L 264.191406 198.152344 C 263.871094 197.832031 262.738281 196.914062 261.070312 196.914062 C 259.019531 196.914062 256.945312 198.453125 256.945312 201.382812 C 256.945312 204.054688 258.828125 205.789062 261.113281 205.789062 C 263.035156 205.789062 264.125 205.019531 264.683594 204.398438 Z M 265.496094 205.679688 " fill-opacity="1" fill-rule="nonzero"/><path fill="#ffffff" d="M 276.308594 207.222656 L 276.308594 200.503906 C 276.308594 198.195312 275.691406 197.039062 273.550781 197.039062 C 272.121094 197.039062 270.839844 197.980469 270.390625 198.515625 L 270.390625 207.222656 L 268.273438 207.222656 L 268.273438 187.585938 L 270.390625 187.585938 L 270.390625 196.699219 C 271.007812 196.121094 272.355469 195.136719 274.257812 195.136719 C 276.910156 195.136719 278.40625 196.464844 278.40625 199.480469 L 278.40625 207.242188 L 276.308594 207.242188 Z M 276.308594 207.222656 " fill-opacity="1" fill-rule="nonzero"/><path fill="#ffffff" d="M 290.203125 207.222656 L 290.203125 200.503906 C 290.203125 198.195312 289.582031 197.039062 287.445312 197.039062 C 286.011719 197.039062 284.730469 197.980469 284.28125 198.515625 L 284.28125 207.222656 L 282.167969 207.222656 L 282.167969 195.4375 L 284.28125 195.4375 L 284.28125 196.675781 C 284.902344 196.097656 286.25 195.117188 288.152344 195.117188 C 290.800781 195.117188 292.296875 196.464844 292.296875 199.457031 L 292.296875 207.222656 Z M 290.203125 207.222656 " fill-opacity="1" fill-rule="nonzero"/><path fill="#ffffff" d="M 295.761719 191.777344 C 295.761719 190.902344 296.402344 190.304688 297.234375 190.304688 C 298.109375 190.304688 298.6875 190.921875 298.6875 191.777344 C 298.6875 192.613281 298.066406 193.234375 297.234375 193.234375 C 296.402344 193.234375 295.761719 192.613281 295.761719 191.777344 Z M 296.167969 207.222656 L 296.167969 195.4375 L 298.304688 195.4375 L 298.304688 207.222656 Z M 296.167969 207.222656 " fill-opacity="1" fill-rule="nonzero"/><path fill="#ffffff" d="M 312.625 205.765625 C 311.960938 206.644531 310.082031 207.5625 307.664062 207.5625 C 304.074219 207.5625 301.488281 205.125 301.488281 201.402344 C 301.488281 197.746094 303.945312 195.136719 307.535156 195.136719 C 311.214844 195.136719 312.964844 198.023438 312.964844 201.148438 L 312.964844 201.765625 L 303.605469 201.765625 C 303.605469 202.046875 303.648438 202.34375 303.667969 202.496094 C 304.09375 204.867188 305.996094 205.832031 308.09375 205.832031 C 310.058594 205.832031 311.320312 204.953125 311.855469 204.375 Z M 310.851562 200.015625 C 310.527344 198.21875 309.566406 196.847656 307.492188 196.847656 C 305.71875 196.847656 304.160156 197.8125 303.691406 200.015625 Z M 310.851562 200.015625 " fill-opacity="1" fill-rule="nonzero"/><path fill="#ffffff" d="M 323.4375 207.222656 L 318.136719 201.703125 L 318.136719 207.222656 L 316 207.222656 L 316 187.585938 L 318.136719 187.585938 L 318.136719 200.121094 L 322.457031 195.457031 L 325.296875 195.457031 L 319.933594 200.804688 L 326.496094 207.242188 L 323.4375 207.242188 Z M 323.4375 207.222656 " fill-opacity="1" fill-rule="nonzero"/><path fill="#e40f37" d="M 192.375 181.363281 L 183.417969 181.363281 L 179.980469 171.460938 L 166.917969 171.460938 L 163.414062 181.363281 L 154.972656 181.363281 L 166.191406 150.5625 L 162.6875 150.5625 L 162.6875 144.105469 L 178.523438 144.105469 Z M 177.691406 164.957031 L 173.417969 152.832031 L 169.140625 164.957031 Z M 177.691406 164.957031 " fill-opacity="1" fill-rule="nonzero"/><path fill="#e40f37" d="M 224.714844 181.363281 L 218.429688 181.363281 C 214.367188 176.292969 210.4375 171.289062 206.375 166.175781 L 206.375 160.125 C 209.773438 160.125 214.046875 159.847656 214.046875 155.398438 C 214.046875 151.332031 210.265625 150.5625 206.929688 150.5625 L 204.089844 150.5625 L 204.089844 181.363281 L 195.859375 181.363281 L 195.859375 150.5625 L 192.246094 150.5625 L 192.246094 144.105469 L 205.519531 144.105469 C 209.515625 144.105469 213.640625 144.382812 217.191406 146.433594 C 220.523438 148.445312 222.535156 151.441406 222.535156 155.398438 C 222.535156 160.1875 220.246094 164.230469 215.308594 165.300781 L 224.691406 176.359375 L 224.691406 181.363281 Z M 224.714844 181.363281 " fill-opacity="1" fill-rule="nonzero"/><path fill="#e40f37" d="M 262.992188 181.363281 L 254.039062 181.363281 L 250.597656 171.460938 L 237.539062 171.460938 L 234.03125 181.363281 L 225.589844 181.363281 L 236.8125 150.5625 L 233.304688 150.5625 L 233.304688 144.105469 L 249.144531 144.105469 Z M 248.332031 164.957031 L 244.058594 152.832031 L 239.78125 164.957031 Z M 248.332031 164.957031 " fill-opacity="1" fill-rule="nonzero"/><path fill="#e40f37" d="M 291.121094 148.488281 L 279.664062 165.558594 L 279.664062 181.339844 L 271.4375 181.339844 L 271.4375 165.558594 L 261.09375 150.542969 L 258.421875 150.542969 L 258.421875 144.082031 L 272.933594 144.082031 L 272.933594 150.542969 L 270.539062 150.542969 L 275.753906 158.542969 L 280.863281 150.542969 L 278.53125 150.542969 L 278.53125 144.082031 L 291.101562 144.082031 L 291.101562 148.488281 Z M 291.121094 148.488281 " fill-opacity="1" fill-rule="nonzero"/><path fill="#e40f37" d="M 326.347656 181.363281 L 317.390625 181.363281 L 313.949219 171.460938 L 300.890625 171.460938 L 297.382812 181.363281 L 288.941406 181.363281 L 300.164062 150.5625 L 296.65625 150.5625 L 296.65625 144.105469 L 312.496094 144.105469 Z M 311.683594 164.957031 L 307.410156 152.832031 L 303.132812 164.957031 Z M 311.683594 164.957031 " fill-opacity="1" fill-rule="nonzero"/><path fill="#e40f37" d="M 70.953125 170.113281 L 98.308594 130.351562 L 71.613281 130.351562 L 53.851562 182.667969 L 59.152344 182.667969 L 44.234375 222.429688 L 78.390625 170.113281 Z M 70.953125 170.113281 " fill-opacity="1" fill-rule="nonzero"/><path fill="#2ca737" d="M 44.234375 222.429688 L 85.957031 170.113281 L 78.390625 170.113281 Z M 44.234375 222.429688 " fill-opacity="1" fill-rule="nonzero"/><path fill="#4387c7" d="M 46.285156 182.667969 L 53.851562 182.667969 L 71.613281 130.351562 Z M 46.285156 182.667969 " fill-opacity="1" fill-rule="nonzero"/><path fill="#fbc623" d="M 105.917969 130.351562 L 98.308594 130.351562 L 70.953125 170.113281 Z M 105.917969 130.351562 " fill-opacity="1" fill-rule="nonzero"/></svg>