<?xml version="1.0" encoding="utf-8"?>
<!-- Generator: Adobe Illustrator 26.2.1, SVG Export Plug-In . SVG Version: 6.00 Build 0)  -->
<svg version="1.1" id="Laag_1" xmlns="http://www.w3.org/2000/svg" xmlns:xlink="http://www.w3.org/1999/xlink" x="0px" y="0px"
	 viewBox="0 0 152.29 63.05" style="enable-background:new 0 0 152.29 63.05;" xml:space="preserve">
<style type="text/css">
	.st0{fill:#FFFFFF;}
	.st1{fill:#E40F37;}
	.st2{fill:#2CA737;}
	.st3{fill:#4387C7;}
	.st4{fill:#FBC623;}
</style>
<g>
	<path class="st0" d="M32.2,22.25c0.32,1.26,0.62,2.38,0.87,3.31l1.79,6.84h-3.79h-0.46l-7.36,9.23h6.22h7.73l2.05,7.8h12.3
		l-11.78-35.8L32.2,22.25z"/>
</g>
<g>
	<path class="st0" d="M66.98,45.26c-0.31,0.41-1.19,0.84-2.32,0.84c-1.68,0-2.89-1.14-2.89-2.88c0-1.71,1.15-2.93,2.83-2.93
		c1.72,0,2.54,1.35,2.54,2.81v0.29h-4.38c0,0.13,0.02,0.27,0.03,0.34c0.2,1.11,1.09,1.56,2.07,1.56c0.92,0,1.51-0.41,1.76-0.68
		L66.98,45.26z M66.16,42.57c-0.15-0.84-0.6-1.48-1.57-1.48c-0.83,0-1.56,0.45-1.78,1.48H66.16z"/>
	<path class="st0" d="M68.62,45.94v-9.18h0.99v9.18H68.62z"/>
	<path class="st0" d="M76.31,45.26C76,45.67,75.13,46.1,74,46.1c-1.68,0-2.89-1.14-2.89-2.88c0-1.71,1.15-2.93,2.83-2.93
		c1.72,0,2.54,1.35,2.54,2.81v0.29H72.1c0,0.13,0.02,0.27,0.03,0.34c0.2,1.11,1.09,1.56,2.07,1.56c0.92,0,1.51-0.41,1.76-0.68
		L76.31,45.26z M75.49,42.57c-0.15-0.84-0.6-1.48-1.57-1.48c-0.83,0-1.56,0.45-1.78,1.48H75.49z"/>
	<path class="st0" d="M81.38,45.94l-2.48-2.58v2.58h-1v-9.18h1v5.86l2.02-2.18h1.33l-2.51,2.5l3.07,3.01H81.38z"/>
	<path class="st0" d="M84.2,45.94v-4.68h-1.02v-0.82h1.02v-1.92h0.99v1.92h1.35v0.82h-1.35v4.68H84.2z"/>
	<path class="st0" d="M87.68,45.94v-5.51h0.99v0.83c0.08-0.27,0.55-0.96,1.19-0.96c0.45,0,0.8,0.16,0.94,0.26l-0.39,0.93
		c-0.15-0.1-0.37-0.25-0.68-0.25c-0.64,0-1.02,0.73-1.05,1.21v3.49H87.68z"/>
	<path class="st0" d="M94.29,46.1c-1.66,0-2.96-1.28-2.96-2.9c0-1.64,1.3-2.91,2.97-2.91c1.66,0,2.93,1.31,2.93,2.91
		S95.95,46.1,94.29,46.1z M96.19,43.2c0-1.21-0.87-2.07-1.9-2.07c-1.13,0-1.93,0.87-1.93,2.11c0,1.19,0.91,2.05,1.9,2.05
		C95.41,45.28,96.19,44.44,96.19,43.2z"/>
	<path class="st0" d="M99.02,45.94v-4.68H98v-0.82h1.02v-1.92H100v1.92h1.35v0.82H100v4.68H99.02z"/>
	<path class="st0" d="M107.26,45.26c-0.31,0.41-1.19,0.84-2.32,0.84c-1.68,0-2.89-1.14-2.89-2.88c0-1.71,1.15-2.93,2.83-2.93
		c1.72,0,2.54,1.35,2.54,2.81v0.29h-4.38c0,0.13,0.02,0.27,0.03,0.34c0.2,1.11,1.09,1.56,2.07,1.56c0.92,0,1.51-0.41,1.76-0.68
		L107.26,45.26z M106.43,42.57c-0.15-0.84-0.6-1.48-1.57-1.48c-0.83,0-1.56,0.45-1.78,1.48H106.43z"/>
	<path class="st0" d="M113.52,45.22c-0.36,0.46-1.08,0.88-2.16,0.88c-1.62,0-2.86-1.25-2.86-2.9c0-1.67,1.24-2.91,2.95-2.91
		c1,0,1.71,0.52,1.89,0.69l-0.43,0.72c-0.15-0.15-0.68-0.58-1.46-0.58c-0.96,0-1.93,0.72-1.93,2.09c0,1.25,0.88,2.06,1.95,2.06
		c0.9,0,1.41-0.36,1.67-0.65L113.52,45.22z"/>
	<path class="st0" d="M118.58,45.94v-3.14c0-1.08-0.29-1.62-1.29-1.62c-0.67,0-1.27,0.44-1.48,0.69v4.07h-0.99v-9.18h0.99v4.26
		c0.29-0.27,0.92-0.73,1.81-0.73c1.24,0,1.94,0.62,1.94,2.03v3.63H118.58z"/>
	<path class="st0" d="M125.08,45.94v-3.14c0-1.08-0.29-1.62-1.29-1.62c-0.67,0-1.27,0.44-1.48,0.69v4.07h-0.99v-5.51h0.99v0.58
		c0.29-0.27,0.92-0.73,1.81-0.73c1.24,0,1.94,0.63,1.94,2.03v3.63H125.08z"/>
	<path class="st0" d="M127.68,38.72c0-0.41,0.3-0.69,0.69-0.69c0.41,0,0.68,0.29,0.68,0.69c0,0.39-0.29,0.68-0.68,0.68
		C127.98,39.4,127.68,39.11,127.68,38.72z M127.87,45.94v-5.51h1v5.51H127.87z"/>
	<path class="st0" d="M135.57,45.26c-0.31,0.41-1.19,0.84-2.32,0.84c-1.68,0-2.89-1.14-2.89-2.88c0-1.71,1.15-2.93,2.83-2.93
		c1.72,0,2.54,1.35,2.54,2.81v0.29h-4.38c0,0.13,0.02,0.27,0.03,0.34c0.2,1.11,1.09,1.56,2.07,1.56c0.92,0,1.51-0.41,1.76-0.68
		L135.57,45.26z M134.74,42.57c-0.15-0.84-0.6-1.48-1.57-1.48c-0.83,0-1.56,0.45-1.78,1.48H134.74z"/>
	<path class="st0" d="M140.63,45.94l-2.48-2.58v2.58h-1v-9.18h1v5.86l2.02-2.18h1.33l-2.51,2.5l3.07,3.01H140.63z"/>
</g>
<g>
	<path class="st1" d="M79.31,33.85h-4.19l-1.61-4.63H67.4l-1.64,4.63h-3.95l5.25-14.4h-1.64v-3.02h7.41L79.31,33.85z M72.44,26.18
		l-2-5.67l-2,5.67H72.44z"/>
	<path class="st1" d="M94.44,33.85H91.5c-1.9-2.37-3.74-4.71-5.64-7.1v-2.83c1.59,0,3.59-0.13,3.59-2.21c0-1.9-1.77-2.26-3.33-2.26
		h-1.33v14.4h-3.85v-14.4h-1.69v-3.02h6.21c1.87,0,3.8,0.13,5.46,1.09c1.56,0.94,2.5,2.34,2.5,4.19c0,2.24-1.07,4.13-3.38,4.63
		l4.39,5.17V33.85z"/>
	<path class="st1" d="M112.35,33.85h-4.19l-1.61-4.63h-6.11l-1.64,4.63h-3.95l5.25-14.4h-1.64v-3.02h7.41L112.35,33.85z
		 M105.49,26.18l-2-5.67l-2,5.67H105.49z"/>
	<path class="st1" d="M125.51,18.48l-5.36,7.98v7.38h-3.85v-7.38l-4.84-7.02h-1.25v-3.02H117v3.02h-1.12l2.44,3.74l2.39-3.74h-1.09
		v-3.02h5.88V18.48z"/>
	<path class="st1" d="M141.99,33.85h-4.19l-1.61-4.63h-6.11l-1.64,4.63h-3.95l5.25-14.4h-1.64v-3.02h7.41L141.99,33.85z
		 M135.13,26.18l-2-5.67l-2,5.67H135.13z"/>
</g>
<g>
	<polygon class="st1" points="22.5,28.59 35.3,10 22.81,10 14.5,34.46 15.53,34.46 16.98,34.46 10,53.05 25.98,28.59 	"/>
	<polygon class="st2" points="10,53.05 29.52,28.59 25.98,28.59 	"/>
	<polygon class="st3" points="10.96,34.46 14.5,34.46 22.81,10 	"/>
	<polygon class="st4" points="38.86,10 35.3,10 22.5,28.59 	"/>
</g>
</svg>
